<svg width="268" height="76" viewBox="0 0 268 76" fill="none" xmlns="http://www.w3.org/2000/svg">
<g clip-path="url(#clip0_337_3)">
<path d="M0.846191 12.0625C0.846191 5.4351 6.21879 0.0625 12.8462 0.0625H255.846C262.474 0.0625 267.846 5.4351 267.846 12.0625V63.0625C267.846 69.69 262.474 75.0625 255.846 75.0625H12.8462C6.21879 75.0625 0.846191 69.69 0.846191 63.0625V12.0625Z" fill="#FFDD00"/>
<path d="M54.5336 24.7282L54.5008 24.7088L54.4243 24.6855C54.4552 24.7114 54.4934 24.7264 54.5336 24.7282Z" fill="#0D0C22"/>
<path d="M54.5466 24.7216C54.5421 24.7211 54.5382 24.7201 54.5343 24.7188C54.5338 24.7214 54.5338 24.7241 54.5343 24.7268C54.5387 24.7262 54.5426 24.7244 54.5466 24.7216Z" fill="#0D0C22"/>
<path d="M54.5339 24.7294H54.5403V24.7256L54.5339 24.7294Z" fill="#0D0C22"/>
<path d="M54.9871 28.1512L55.0425 28.1196L55.063 28.1079L55.0817 28.0879C55.0469 28.1031 55.0145 28.1245 54.9871 28.1512Z" fill="#0D0C22"/>
<path d="M54.628 24.8031L54.5736 24.7514L54.5369 24.7314C54.557 24.7663 54.5893 24.7921 54.628 24.8031Z" fill="#0D0C22"/>
<path d="M40.9835 58.0781C40.9401 58.0968 40.9022 58.1262 40.873 58.1634L40.9073 58.1414C40.9305 58.1203 40.9634 58.0948 40.9835 58.0781Z" fill="#0D0C22"/>
<path d="M48.9079 56.5199C48.9079 56.4709 48.884 56.4797 48.8898 56.6542C48.8898 56.64 48.8957 56.6258 48.8982 56.6121C48.9015 56.5812 48.904 56.5508 48.9079 56.5199Z" fill="#0D0C22"/>
<path d="M48.0894 58.0781C48.0461 58.0968 48.0081 58.1262 47.979 58.1634L48.0132 58.1414C48.0365 58.1203 48.0694 58.0948 48.0894 58.0781Z" fill="#0D0C22"/>
<path d="M35.3994 58.4499C35.3665 58.4215 35.3262 58.4024 35.2832 58.3955C35.3181 58.4127 35.3529 58.4293 35.3762 58.4421L35.3994 58.4499Z" fill="#0D0C22"/>
<path d="M34.1454 57.2481C34.1403 57.1971 34.1247 57.1481 34.0996 57.1035C34.1174 57.1496 34.1323 57.1971 34.1442 57.2457L34.1454 57.2481Z" fill="#0D0C22"/>
<path d="M42.5798 35.7351C40.8556 36.4731 38.899 37.31 36.3632 37.31C35.3024 37.3079 34.2467 37.1624 33.2249 36.8774L34.9787 54.8842C35.0408 55.6367 35.3837 56.3386 35.9392 56.8499C36.4948 57.3617 37.2224 57.6455 37.9776 57.645C37.9776 57.645 40.4643 57.7744 41.2941 57.7744C42.1872 57.7744 44.8651 57.645 44.8651 57.645C45.6201 57.645 46.3476 57.3612 46.903 56.8499C47.4584 56.3382 47.8012 55.6367 47.8633 54.8842L49.7418 34.986C48.9023 34.6993 48.0551 34.5088 47.1 34.5088C45.4482 34.5082 44.1173 35.077 42.5798 35.7351Z" fill="white"/>
<path d="M27.7993 28.0537L27.829 28.0815L27.8484 28.0931C27.8335 28.0783 27.817 28.065 27.7993 28.0537Z" fill="#0D0C22"/>
<path d="M57.8558 26.3909L57.592 25.0587C57.3548 23.8634 56.817 22.734 55.5901 22.302C55.1969 22.1638 54.7504 22.1044 54.4489 21.8184C54.1474 21.5323 54.0582 21.088 53.9886 20.676C53.8597 19.9198 53.7381 19.163 53.6058 18.4082C53.4915 17.7592 53.4009 17.0301 53.1033 16.4348C52.716 15.6353 51.9121 15.1678 51.1126 14.8585C50.7028 14.7056 50.2847 14.5762 49.8604 14.4711C47.8631 13.9441 45.7631 13.7504 43.7083 13.64C41.242 13.5039 38.7691 13.5449 36.3087 13.7627C34.4774 13.9292 32.5485 14.1308 30.8083 14.7642C30.1722 14.9961 29.5168 15.2743 29.0331 15.7658C28.4397 16.3695 28.2459 17.3033 28.6792 18.0562C28.9873 18.5909 29.509 18.9687 30.0624 19.2186C30.7833 19.5406 31.536 19.7856 32.3083 19.9495C34.4586 20.4248 36.6859 20.6114 38.8827 20.6909C41.3175 20.7891 43.7563 20.7095 46.1796 20.4526C46.7788 20.3867 47.377 20.3077 47.9741 20.2156C48.6773 20.1078 49.1287 19.1882 48.9214 18.5476C48.6735 17.7818 48.0071 17.4847 47.2535 17.6003C47.1424 17.6178 47.032 17.6339 46.9209 17.6501L46.8409 17.6617C46.5856 17.6939 46.3303 17.7241 46.075 17.7521C45.5476 17.8089 45.019 17.8554 44.489 17.8915C43.3022 17.9742 42.112 18.0123 40.9226 18.0142C39.7538 18.0142 38.5843 17.9813 37.4181 17.9045C36.886 17.8696 36.3552 17.8253 35.8257 17.7714C35.5848 17.7462 35.3446 17.7198 35.1044 17.6901L34.8758 17.661L34.8261 17.6539L34.5891 17.6197C34.1048 17.5467 33.6205 17.4628 33.1413 17.3614C33.093 17.3507 33.0497 17.3238 33.0187 17.2852C32.9878 17.2465 32.9709 17.1985 32.9709 17.1489C32.9709 17.0994 32.9878 17.0514 33.0187 17.0128C33.0497 16.9741 33.093 16.9472 33.1413 16.9365H33.1504C33.5656 16.848 33.984 16.7725 34.4037 16.7066C34.5437 16.6847 34.684 16.6631 34.8248 16.642H34.8286C35.0915 16.6246 35.3556 16.5775 35.6171 16.5464C37.8925 16.3098 40.1814 16.2291 42.4679 16.305C43.5779 16.3372 44.6873 16.4025 45.7921 16.5148C46.0298 16.5394 46.2661 16.5652 46.5025 16.5942C46.5929 16.6052 46.6839 16.6182 46.775 16.6291L46.9584 16.6556C47.4931 16.7352 48.0249 16.8319 48.554 16.9456C49.338 17.116 50.3445 17.1715 50.6935 18.0304C50.8043 18.3029 50.8548 18.6058 50.916 18.8918L50.9945 19.2566C50.9964 19.2632 50.9979 19.2699 50.9989 19.2767C51.1837 20.1377 51.3685 20.9987 51.5533 21.8597C51.567 21.9233 51.5675 21.989 51.5543 22.0527C51.5415 22.1164 51.5156 22.1768 51.4783 22.2301C51.441 22.2834 51.393 22.3284 51.3376 22.3623C51.2822 22.3962 51.22 22.4183 51.1558 22.4273H51.1504L51.0376 22.4428L50.9259 22.4576C50.5719 22.5037 50.2175 22.5467 49.8629 22.5868C49.1642 22.6664 48.4645 22.7353 47.7636 22.7934C46.371 22.9092 44.9755 22.9852 43.5772 23.0213C42.8648 23.0403 42.1525 23.0491 41.4405 23.0478C38.6063 23.0456 35.7746 22.8809 32.9592 22.5545C32.6544 22.5183 32.3497 22.4796 32.0449 22.4402C32.2812 22.4706 31.8731 22.4169 31.7905 22.4053C31.5967 22.3782 31.403 22.35 31.2093 22.3207C30.559 22.2232 29.9126 22.1031 29.2636 21.9979C28.479 21.8687 27.7287 21.9333 27.019 22.3207C26.4365 22.6395 25.965 23.1284 25.6675 23.722C25.3614 24.3548 25.2704 25.0438 25.1334 25.7238C24.9965 26.4038 24.7834 27.1354 24.8642 27.8335C25.0379 29.34 26.0911 30.5643 27.606 30.8381C29.0311 31.0964 30.4641 31.3057 31.9009 31.4838C37.5449 32.1751 43.2468 32.2578 48.9085 31.7306C49.3696 31.6875 49.83 31.6406 50.2896 31.5898C50.4332 31.574 50.5788 31.5905 50.7151 31.6382C50.8513 31.6859 50.9754 31.7634 51.0778 31.8652C51.1803 31.967 51.2592 32.0904 51.3077 32.2264C51.3562 32.3625 51.3739 32.5077 51.3592 32.6514L51.2156 34.0449C50.9268 36.8608 50.6381 39.6764 50.3494 42.4919C50.0479 45.4486 49.7445 48.405 49.4393 51.361C49.3532 52.1938 49.2671 53.0262 49.181 53.8586C49.0984 54.6777 49.0867 55.5233 48.9311 56.3331C48.6858 57.6061 47.8236 58.3885 46.5658 58.6742C45.4133 58.9365 44.236 59.0742 43.0542 59.085C41.744 59.0919 40.4344 59.034 39.1242 59.0409C37.7255 59.0487 36.0123 58.9198 34.9326 57.8787C33.984 56.9644 33.853 55.5326 33.7238 54.2948C33.5516 52.6561 33.3809 51.0174 33.2117 49.3787L32.2625 40.268L31.6484 34.3729C31.6381 34.2754 31.6277 34.1792 31.618 34.0811C31.5444 33.3779 31.0465 32.6895 30.262 32.725C29.5904 32.7547 28.8271 33.3255 28.9059 34.0811L29.3611 38.4514L30.3026 47.4919C30.5709 50.06 30.8384 52.6282 31.1053 55.1968C31.157 55.6889 31.2054 56.1826 31.2596 56.6742C31.5547 59.3635 33.6082 60.8125 36.1511 61.2203C37.6364 61.4595 39.1578 61.5086 40.6649 61.5331C42.597 61.5639 44.5485 61.6385 46.4489 61.2885C49.265 60.7718 51.3778 58.8914 51.6793 55.9742C51.7656 55.1326 51.8518 54.2899 51.9376 53.4478C52.2239 50.6615 52.5097 47.8751 52.7955 45.0885L53.7288 35.9834L54.1572 31.8106C54.1783 31.6037 54.2661 31.4091 54.4062 31.2558C54.5469 31.1024 54.7332 30.9983 54.9371 30.9589C55.7425 30.8019 56.5121 30.534 57.0852 29.9212C57.9969 28.9454 58.1783 27.6733 57.8558 26.3909ZM27.5647 27.2911C27.5769 27.2852 27.5543 27.3905 27.5447 27.4396C27.5427 27.3653 27.5466 27.2994 27.5647 27.2911ZM27.6428 27.8955C27.6493 27.891 27.6686 27.9168 27.6886 27.9478C27.6583 27.9193 27.6389 27.8981 27.6422 27.8955H27.6428ZM27.7197 27.9968C27.7474 28.044 27.7623 28.0737 27.7197 27.9968V27.9968ZM27.874 28.1221H27.8779C27.8779 28.1266 27.885 28.1312 27.8876 28.1357C27.8833 28.1307 27.8785 28.1262 27.8734 28.1221H27.874ZM54.8999 27.9348C54.6107 28.2099 54.1744 28.3378 53.744 28.4017C48.9137 29.1185 44.0131 29.4814 39.13 29.3212C35.6352 29.2018 32.1772 28.8137 28.7173 28.3249C28.3783 28.2771 28.0109 28.2151 27.7778 27.9652C27.3386 27.4938 27.5543 26.5445 27.6686 25.975C27.7733 25.4533 27.9734 24.7578 28.594 24.6835C29.5626 24.5699 30.6875 24.9786 31.6458 25.1239C32.7995 25.3 33.9576 25.441 35.1199 25.5469C40.0805 25.9989 45.1244 25.9285 50.0631 25.2673C50.9631 25.1463 51.8602 25.0058 52.7538 24.8456C53.5504 24.7029 54.4327 24.4349 54.9141 25.2595C55.244 25.8213 55.2876 26.573 55.2366 27.2077C55.221 27.4843 55.1004 27.7444 54.8989 27.9348H54.8999Z" fill="#0D0C22"/>
<path fill-rule="evenodd" clip-rule="evenodd" d="M84.1973 41.3558C83.9155 41.8941 83.5277 42.3629 83.0341 42.7607C82.5405 43.1588 81.965 43.4829 81.3066 43.7325C80.6488 43.9826 79.9865 44.1504 79.3208 44.236C78.6547 44.3219 78.0081 44.3144 77.3821 44.2125C76.7552 44.1112 76.2218 43.9045 75.7836 43.5919L76.2777 38.4636C76.7316 38.3077 77.3032 38.1475 77.9929 37.9836C78.6821 37.8199 79.3909 37.7025 80.1199 37.6324C80.8488 37.562 81.5375 37.5703 82.188 37.6559C82.838 37.7417 83.3512 37.9485 83.7272 38.2765C83.9311 38.4636 84.1037 38.6666 84.2444 38.8852C84.3856 39.1039 84.4713 39.3302 84.5032 39.5644C84.5811 40.22 84.4797 40.8172 84.1973 41.3558ZM77.0292 30.4317C77.3581 30.2288 77.7542 30.049 78.2159 29.8927C78.6782 29.7371 79.1522 29.6275 79.638 29.5651C80.1233 29.503 80.5973 29.4947 81.0601 29.5416C81.5218 29.5885 81.9297 29.7172 82.2821 29.9278C82.6346 30.1388 82.8968 30.4433 83.0694 30.8411C83.2414 31.2395 83.2885 31.743 83.2101 32.3517C83.1478 32.8357 82.9552 33.2456 82.6346 33.5811C82.3135 33.9171 81.9213 34.1978 81.4596 34.4242C80.9973 34.6509 80.5076 34.8303 79.9909 34.9625C79.4733 35.0956 78.9758 35.1933 78.4983 35.2554C78.0204 35.3181 77.6052 35.3574 77.2527 35.3725C76.9003 35.3882 76.6689 35.3959 76.5591 35.3959L77.0292 30.4317ZM86.7356 38.0421C86.4851 37.496 86.1483 37.0159 85.7253 36.6018C85.3022 36.1883 84.8003 35.8879 84.2208 35.7005C84.4713 35.4976 84.7184 35.1776 84.9615 34.7403C85.2042 34.3036 85.4115 33.8271 85.5841 33.3119C85.7561 32.7965 85.8743 32.2777 85.9365 31.7546C85.9988 31.2317 85.9753 30.7828 85.8664 30.4079C85.5993 29.4715 85.1807 28.7377 84.6086 28.2068C84.0365 27.6762 83.3709 27.3093 82.611 27.1061C81.8508 26.9038 81.013 26.8604 80.0963 26.9775C79.1797 27.0945 78.2434 27.3248 77.288 27.6682C77.288 27.5903 77.2958 27.5084 77.3115 27.4225C77.3267 27.337 77.3346 27.2469 77.3346 27.153C77.3346 26.919 77.2174 26.7163 76.9821 26.5443C76.7473 26.3726 76.4772 26.2713 76.1718 26.2398C75.8659 26.2089 75.5684 26.2749 75.2782 26.4389C74.9885 26.6028 74.7885 26.9038 74.6792 27.3402C74.5537 28.7454 74.4282 30.2053 74.3032 31.7193C74.1777 33.2338 74.0444 34.7638 73.9037 36.3095C73.7625 37.8549 73.6213 39.3888 73.4807 40.9107C73.3395 42.433 73.1983 43.8964 73.0576 45.3013C73.1047 45.7229 73.2218 46.0509 73.4101 46.285C73.5978 46.5194 73.8174 46.6599 74.0679 46.7066C74.3184 46.7535 74.5811 46.7101 74.8552 46.5776C75.1292 46.4454 75.3684 46.2146 75.5723 45.8869C76.1988 46.2303 76.9042 46.4528 77.6875 46.5545C78.4708 46.6557 79.2655 46.6557 80.0733 46.5545C80.8797 46.4528 81.6748 46.2618 82.4581 45.9805C83.2414 45.6997 83.9547 45.3483 84.5968 44.927C85.2395 44.5054 85.7797 44.025 86.2189 43.4868C86.6571 42.9478 86.9473 42.3664 87.088 41.7423C87.2292 41.1021 87.2684 40.4622 87.2057 39.8219C87.1429 39.182 86.986 38.589 86.7356 38.0421Z" fill="#0D0C23"/>
<path fill-rule="evenodd" clip-rule="evenodd" d="M109.664 50.4073C109.578 50.9225 109.456 51.4652 109.3 52.0353C109.143 52.6044 108.959 53.124 108.748 53.5926C108.536 54.0607 108.301 54.4387 108.043 54.7279C107.784 55.0166 107.506 55.1377 107.208 55.0911C106.973 55.0593 106.824 54.9112 106.762 54.646C106.699 54.3804 106.699 54.0524 106.762 53.6627C106.824 53.272 106.946 52.8308 107.126 52.3392C107.306 51.8475 107.526 51.3593 107.784 50.8759C108.043 50.3916 108.337 49.9274 108.666 49.4823C108.995 49.0378 109.339 48.6667 109.699 48.3703C109.778 48.4638 109.813 48.6979 109.805 49.0728C109.797 49.4475 109.75 49.8926 109.664 50.4073ZM117.632 40.2444C117.42 40.0103 117.162 39.8778 116.856 39.8463C116.55 39.8151 116.241 39.9868 115.928 40.3615C115.724 40.7361 115.465 41.0953 115.152 41.4387C114.839 41.7824 114.514 42.0944 114.177 42.3754C113.84 42.6561 113.519 42.8985 113.213 43.1012C112.908 43.3044 112.669 43.4526 112.496 43.5462C112.434 43.0468 112.398 42.5082 112.391 41.9303C112.382 41.3528 112.395 40.7676 112.426 40.1743C112.472 39.3312 112.571 38.4806 112.72 37.6217C112.869 36.7632 113.084 35.9201 113.366 35.0924C113.366 34.6556 113.264 34.3004 113.06 34.027C112.856 33.754 112.61 33.582 112.32 33.5119C112.03 33.4418 111.733 33.4807 111.427 33.6289C111.121 33.7775 110.859 34.0469 110.64 34.4367C110.452 34.9522 110.236 35.5297 109.994 36.1696C109.75 36.8098 109.476 37.4616 109.171 38.125C108.865 38.789 108.524 39.4328 108.148 40.057C107.772 40.6817 107.361 41.2361 106.915 41.7197C106.468 42.2037 105.982 42.5825 105.458 42.8555C104.932 43.1288 104.365 43.2497 103.754 43.2185C103.471 43.1404 103.268 42.9298 103.143 42.586C103.017 42.2429 102.943 41.8133 102.92 41.2981C102.896 40.783 102.92 40.2171 102.99 39.6003C103.06 38.9839 103.154 38.371 103.272 37.7623C103.389 37.1532 103.519 36.5757 103.659 36.0294C103.8 35.483 103.933 35.0223 104.059 34.6477C104.247 34.1952 104.247 33.8161 104.059 33.5119C103.871 33.2074 103.613 33.0048 103.284 32.9028C102.955 32.8016 102.61 32.8057 102.249 32.9148C101.889 33.0241 101.63 33.2659 101.474 33.6405C101.207 34.281 100.964 34.9988 100.745 35.795C100.526 36.5912 100.349 37.415 100.217 38.2655C100.083 39.1167 100.008 39.9598 99.993 40.7949C99.9921 40.8493 99.9945 40.9009 99.9945 40.955C99.6529 41.8626 99.3274 42.5486 99.018 43.0076C98.6185 43.6011 98.1676 43.8587 97.6666 43.7803C97.4465 43.6867 97.3024 43.4683 97.2318 43.1246C97.1607 42.7815 97.1377 42.36 97.1607 41.86C97.1847 41.3608 97.2435 40.7949 97.3372 40.1624C97.4318 39.5302 97.5484 38.8746 97.6896 38.1954C97.8308 37.516 97.9798 36.8336 98.1362 36.1464C98.2931 35.4596 98.4337 34.8116 98.5597 34.2026C98.544 33.6563 98.3832 33.2389 98.0774 32.9498C97.7725 32.6613 97.345 32.5481 96.797 32.6103C96.421 32.7665 96.1426 32.9697 95.9627 33.2193C95.7823 33.4688 95.6372 33.7891 95.5279 34.1791C95.4646 34.3824 95.371 34.7881 95.2455 35.3972C95.12 36.0056 94.9597 36.7047 94.7636 37.4928C94.568 38.2816 94.3367 39.1048 94.0705 39.9633C93.8043 40.8219 93.5063 41.5991 93.1779 42.2934C92.8484 42.988 92.4881 43.5462 92.0965 43.9678C91.7048 44.389 91.2818 44.561 90.8274 44.4829C90.5764 44.436 90.4161 44.1784 90.3455 43.7102C90.2749 43.2417 90.2636 42.6645 90.3102 41.9773C90.3573 41.2904 90.4514 40.537 90.5921 39.7177C90.7332 38.898 90.8779 38.1214 91.0269 37.3874C91.1759 36.6538 91.3132 36.0056 91.4386 35.4438C91.5636 34.8817 91.6499 34.5071 91.697 34.32C91.697 33.8672 91.5945 33.5045 91.3916 33.2308C91.1877 32.9581 90.9411 32.7861 90.6509 32.7157C90.3607 32.6456 90.0631 32.6845 89.7582 32.8328C89.4524 32.9813 89.1901 33.2507 88.9705 33.6405C88.8921 34.0621 88.7901 34.5502 88.6651 35.1043C88.5396 35.6583 88.4185 36.2281 88.3009 36.8137C88.1832 37.3992 88.0734 37.9729 87.972 38.535C87.87 39.0971 87.7955 39.5887 87.7484 40.0103C87.7171 40.338 87.6818 40.7403 87.643 41.2162C87.6033 41.6927 87.5837 42.1959 87.5837 42.7265C87.5837 43.2578 87.623 43.7845 87.7019 44.3073C87.7798 44.8305 87.921 45.3106 88.1244 45.7473C88.3279 46.1846 88.6141 46.5435 88.9828 46.8245C89.3504 47.1055 89.8166 47.2615 90.3808 47.293C90.9602 47.3239 91.4656 47.2814 91.897 47.1641C92.3274 47.047 92.719 46.8634 93.072 46.6136C93.4244 46.3643 93.7455 46.0676 94.0357 45.7238C94.3249 45.3807 94.6112 45.0061 94.8931 44.6C95.1597 45.1935 95.5043 45.6537 95.9274 45.9817C96.3504 46.3094 96.797 46.5049 97.2671 46.567C97.7367 46.629 98.2151 46.5634 98.7009 46.3679C99.1862 46.173 99.6249 45.8412 100.017 45.3727C100.275 45.0854 100.518 44.7589 100.746 44.3979C100.844 44.567 100.946 44.7301 101.063 44.8807C101.446 45.3807 101.968 45.7238 102.626 45.9113C103.331 46.0987 104.02 46.1303 104.694 46.0052C105.367 45.8804 106.01 45.6537 106.621 45.326C107.232 44.998 107.799 44.6041 108.325 44.1433C108.849 43.6829 109.308 43.203 109.699 42.7031C109.684 43.0623 109.676 43.4021 109.676 43.7218C109.676 44.042 109.668 44.389 109.653 44.7639C108.869 45.3106 108.129 45.9662 107.432 46.7309C106.734 47.4956 106.123 48.3114 105.598 49.1779C105.073 50.0441 104.662 50.9225 104.365 51.8122C104.067 52.7024 103.922 53.5338 103.93 54.3068C103.938 55.0794 104.121 55.7544 104.482 56.3318C104.842 56.9098 105.43 57.323 106.245 57.573C107.091 57.8387 107.835 57.846 108.478 57.5965C109.12 57.3465 109.68 56.9328 110.158 56.3554C110.636 55.7779 111.027 55.0794 111.333 54.2598C111.639 53.4402 111.881 52.5853 112.062 51.6955C112.242 50.8058 112.355 49.9308 112.402 49.0728C112.449 48.214 112.449 47.4487 112.402 46.7776C113.75 46.2158 114.854 45.5055 115.716 44.6466C116.578 43.7886 117.291 42.8828 117.855 41.9303C118.027 41.6962 118.086 41.4152 118.031 41.0875C117.976 40.7596 117.843 40.4785 117.632 40.2444Z" fill="#0D0C23"/>
<path fill-rule="evenodd" clip-rule="evenodd" d="M147.279 38.7455C147.326 38.3866 147.397 38.0078 147.491 37.6097C147.585 37.2116 147.702 36.8251 147.844 36.4505C147.984 36.0759 148.149 35.7521 148.337 35.4788C148.525 35.2057 148.725 35.0106 148.936 34.8932C149.148 34.7765 149.363 34.788 149.583 34.9283C149.818 35.0691 149.962 35.3656 150.018 35.818C150.072 36.2714 150.018 36.755 149.853 37.2702C149.688 37.7856 149.395 38.2692 148.972 38.722C148.549 39.1751 147.976 39.4713 147.256 39.6118C147.224 39.3938 147.232 39.1047 147.279 38.7455ZM155.423 39.7054C155.164 39.6278 154.918 39.6198 154.682 39.6822C154.448 39.7446 154.299 39.9086 154.236 40.1742C154.11 40.6736 153.91 41.1848 153.636 41.7077C153.362 42.2309 153.025 42.7264 152.626 43.1949C152.227 43.6631 151.776 44.077 151.275 44.4359C150.773 44.795 150.249 45.0526 149.7 45.2086C149.151 45.3806 148.697 45.3999 148.337 45.2671C147.976 45.1349 147.691 44.9082 147.479 44.5883C147.268 44.2683 147.115 43.8818 147.021 43.4291C146.927 42.9763 146.872 42.5081 146.856 42.0238C147.749 42.0865 148.545 41.9267 149.242 41.5438C149.939 41.1617 150.53 40.654 151.016 40.0217C151.501 39.3896 151.87 38.6792 152.121 37.8908C152.371 37.1026 152.512 36.318 152.544 35.5373C152.559 34.8035 152.45 34.1832 152.215 33.6758C151.98 33.1686 151.662 32.7738 151.263 32.4931C150.864 32.212 150.405 32.048 149.888 32.0014C149.372 31.9544 148.846 32.0248 148.313 32.212C147.671 32.4307 147.126 32.7857 146.68 33.2777C146.233 33.7693 145.861 34.3394 145.564 34.9871C145.266 35.635 145.031 36.3335 144.859 37.0827C144.686 37.8322 144.561 38.5699 144.483 39.296C144.412 39.9475 144.374 40.5705 144.361 41.1718C144.327 41.2481 144.295 41.3215 144.259 41.4032C144.016 41.9579 143.734 42.5003 143.413 43.0309C143.092 43.5618 142.735 44.0068 142.344 44.3657C141.952 44.7249 141.545 44.8497 141.122 44.7404C140.871 44.6783 140.734 44.3889 140.711 43.8741C140.687 43.3586 140.714 42.7187 140.793 41.9537C140.871 41.189 140.961 40.3611 141.063 39.4713C141.165 38.5815 141.216 37.731 141.216 36.919C141.216 36.2164 141.082 35.5415 140.816 34.8932C140.549 34.2459 140.185 33.7069 139.724 33.2777C139.261 32.8481 138.724 32.5632 138.114 32.423C137.502 32.2821 136.845 32.376 136.14 32.7037C135.434 33.0317 134.874 33.4921 134.459 34.0854C134.044 34.679 133.664 35.3032 133.319 35.9589C133.194 35.4591 133.01 34.9951 132.767 34.5655C132.524 34.1363 132.226 33.7616 131.874 33.4414C131.521 33.1217 131.125 32.8718 130.687 32.6921C130.249 32.513 129.786 32.423 129.3 32.423C128.83 32.423 128.396 32.513 127.996 32.6921C127.597 32.8718 127.232 33.1018 126.903 33.3828C126.574 33.6641 126.276 33.98 126.01 34.3314C125.744 34.6826 125.508 35.0302 125.305 35.3733C125.273 34.9675 125.238 34.6125 125.199 34.3076C125.16 34.0035 125.089 33.7459 124.988 33.5352C124.886 33.3243 124.741 33.1645 124.553 33.0551C124.365 32.9461 124.099 32.8912 123.754 32.8912C123.581 32.8912 123.409 32.9262 123.237 32.9963C123.064 33.0667 122.911 33.1645 122.778 33.2892C122.645 33.4146 122.544 33.5664 122.473 33.7459C122.402 33.9253 122.383 34.1324 122.414 34.3665C122.43 34.5385 122.473 34.745 122.544 34.9871C122.614 35.2292 122.68 35.5456 122.743 35.9354C122.806 36.3258 122.857 36.7981 122.896 37.3522C122.935 37.9065 122.947 38.5857 122.931 39.3896C122.915 40.1938 122.857 41.1341 122.755 42.2113C122.653 43.2885 122.492 44.5374 122.273 45.9578C122.242 46.2858 122.367 46.5514 122.649 46.7543C122.931 46.9569 123.252 47.0739 123.613 47.1054C123.973 47.1366 124.314 47.074 124.635 46.9183C124.956 46.7617 125.141 46.4887 125.187 46.0986C125.234 45.3648 125.324 44.5844 125.458 43.7567C125.591 42.9296 125.755 42.11 125.951 41.298C126.147 40.4864 126.37 39.7137 126.621 38.9796C126.872 38.2458 127.15 37.5982 127.455 37.0361C127.761 36.474 128.078 36.0254 128.407 35.6897C128.736 35.354 129.081 35.1861 129.442 35.1861C129.88 35.1861 130.221 35.3849 130.464 35.783C130.706 36.1814 130.878 36.6929 130.981 37.3168C131.082 37.9416 131.129 38.6249 131.122 39.3661C131.114 40.1076 131.082 40.8218 131.028 41.5087C130.973 42.1958 130.91 42.8084 130.84 43.347C130.769 43.8857 130.718 44.2567 130.687 44.4593C130.687 44.8185 130.824 45.1031 131.098 45.314C131.372 45.5246 131.677 45.6497 132.015 45.6887C132.352 45.7279 132.669 45.6652 132.967 45.5012C133.264 45.3372 133.437 45.0606 133.484 44.6699C133.64 43.5461 133.856 42.4184 134.13 41.2865C134.404 40.1546 134.718 39.14 135.07 38.2422C135.423 37.3444 135.814 36.6107 136.245 36.0409C136.676 35.4714 137.134 35.1861 137.62 35.1861C137.871 35.1861 138.063 35.3581 138.196 35.7013C138.329 36.0447 138.396 36.5129 138.396 37.1062C138.396 37.5435 138.36 37.9924 138.29 38.4529C138.219 38.9134 138.137 39.3896 138.043 39.8813C137.949 40.3732 137.867 40.8765 137.796 41.3916C137.726 41.9071 137.691 42.4454 137.691 43.0075C137.691 43.3978 137.73 43.8506 137.808 44.3657C137.886 44.8806 138.035 45.369 138.254 45.8291C138.474 46.2899 138.775 46.68 139.16 47C139.544 47.3199 140.033 47.4801 140.628 47.4801C141.522 47.4801 142.312 47.2888 143.002 46.9064C143.691 46.524 144.283 46.0246 144.776 45.4079C144.802 45.3755 144.825 45.3411 144.85 45.309C144.888 45.4002 144.922 45.4967 144.964 45.5835C145.301 46.2703 145.759 46.8009 146.339 47.1759C146.919 47.5505 147.6 47.7572 148.384 47.7965C149.167 47.8351 150.021 47.6907 150.946 47.363C151.635 47.1132 152.234 46.8009 152.744 46.4263C153.252 46.0517 153.711 45.5951 154.118 45.0565C154.526 44.5178 154.898 43.8972 155.235 43.1949C155.572 42.492 155.912 41.6884 156.257 40.7826C156.32 40.5334 156.261 40.3108 156.081 40.1154C155.9 39.9205 155.681 39.7838 155.423 39.7054Z" fill="#0D0C23"/>
<path fill-rule="evenodd" clip-rule="evenodd" d="M168.196 37.0936C168.117 37.5543 168.012 38.062 167.879 38.6158C167.745 39.1702 167.577 39.7438 167.373 40.3371C167.17 40.9304 166.919 41.4651 166.621 41.9411C166.324 42.4176 165.983 42.7958 165.599 43.0768C165.215 43.3579 164.773 43.4749 164.271 43.428C164.02 43.3971 163.828 43.2254 163.695 42.9128C163.562 42.6009 163.492 42.2025 163.484 41.7186C163.476 41.2349 163.519 40.704 163.613 40.1262C163.707 39.5489 163.852 38.9827 164.048 38.4284C164.244 37.8746 164.483 37.363 164.764 36.8945C165.047 36.4263 165.372 36.0633 165.74 35.8057C166.108 35.5481 166.512 35.4275 166.95 35.4427C167.389 35.4584 167.859 35.6767 168.361 36.0983C168.329 36.3015 168.274 36.6334 168.196 37.0936ZM176.551 38.885C176.308 38.7602 176.057 38.7332 175.799 38.8033C175.54 38.8734 175.356 39.1116 175.247 39.5175C175.184 39.9548 175.043 40.4696 174.824 41.0629C174.604 41.6562 174.334 42.2186 174.013 42.7488C173.691 43.2797 173.323 43.7209 172.908 44.072C172.493 44.4235 172.05 44.5837 171.581 44.5518C171.188 44.521 170.914 44.3219 170.758 43.955C170.601 43.5881 170.519 43.1279 170.511 42.5733C170.503 42.0195 170.558 41.395 170.675 40.7002C170.793 40.0056 170.934 39.3148 171.098 38.6274C171.263 37.9408 171.432 37.281 171.604 36.6488C171.776 36.0166 171.917 35.4819 172.027 35.0449C172.152 34.6545 172.113 34.323 171.91 34.0493C171.706 33.7766 171.451 33.5811 171.146 33.4641C170.84 33.347 170.53 33.3158 170.217 33.3705C169.904 33.4252 169.7 33.593 169.606 33.8738C168.682 33.0776 167.792 32.6483 166.939 32.5859C166.085 32.5235 165.297 32.711 164.577 33.148C163.856 33.585 163.217 34.2172 162.661 35.0449C162.105 35.8725 161.655 36.7739 161.31 37.7495C160.965 38.7251 160.75 39.7207 160.663 40.7352C160.577 41.75 160.644 42.6752 160.863 43.5103C161.083 44.3454 161.47 45.0287 162.027 45.5589C162.583 46.0898 163.339 46.3555 164.295 46.3555C164.718 46.3555 165.125 46.2696 165.517 46.0979C165.908 45.9259 166.269 45.723 166.598 45.4888C166.927 45.2547 167.216 45.0088 167.468 44.7512C167.718 44.4936 167.914 44.2791 168.055 44.1071C168.164 44.6692 168.345 45.1457 168.596 45.5358C168.846 45.9259 169.132 46.2464 169.453 46.4957C169.774 46.7452 170.111 46.9288 170.464 47.0462C170.816 47.1632 171.158 47.2217 171.486 47.2217C172.223 47.2217 172.911 46.9719 173.555 46.4722C174.197 45.9731 174.773 45.3599 175.282 44.6341C175.791 43.9081 176.211 43.1434 176.539 42.3391C176.868 41.5353 177.087 40.8211 177.197 40.1963C177.307 39.9622 177.287 39.7165 177.138 39.4589C176.989 39.2013 176.794 39.0103 176.551 38.885Z" fill="#0D0C23"/>
<path fill-rule="evenodd" clip-rule="evenodd" d="M218.855 51.8143C218.722 52.3446 218.514 52.7942 218.232 53.1608C217.95 53.5275 217.598 53.7187 217.175 53.7348C216.908 53.75 216.704 53.6094 216.563 53.3133C216.423 53.0162 216.325 52.6339 216.27 52.1657C216.215 51.6971 216.191 51.1741 216.199 50.5966C216.207 50.0192 216.23 49.4491 216.27 48.8871C216.308 48.3253 216.356 47.8019 216.411 47.3182C216.465 46.834 216.508 46.4599 216.54 46.1944C217.073 46.2567 217.516 46.4867 217.868 46.885C218.22 47.2831 218.491 47.7552 218.678 48.3019C218.867 48.8482 218.976 49.4378 219.008 50.0696C219.039 50.702 218.988 51.2834 218.855 51.8143ZM210.347 51.8143C210.214 52.3446 210.006 52.7942 209.725 53.1608C209.443 53.5275 209.09 53.7187 208.667 53.7348C208.401 53.75 208.197 53.6094 208.056 53.3133C207.915 53.0162 207.817 52.6339 207.762 52.1657C207.707 51.6971 207.683 51.1741 207.692 50.5966C207.699 50.0192 207.723 49.4491 207.762 48.8871C207.801 48.3253 207.848 47.8019 207.903 47.3182C207.958 46.834 208.001 46.4599 208.032 46.1944C208.565 46.2567 209.008 46.4867 209.36 46.885C209.713 47.2831 209.983 47.7552 210.171 48.3019C210.359 48.8482 210.469 49.4378 210.5 50.0696C210.531 50.702 210.48 51.2834 210.347 51.8143ZM201.617 38.5135C201.601 38.8878 201.565 39.2197 201.51 39.5085C201.455 39.7978 201.381 39.9808 201.287 40.059C201.115 39.9651 200.903 39.7236 200.653 39.3329C200.402 38.9428 200.206 38.5014 200.065 38.0096C199.924 37.518 199.88 37.0344 199.936 36.5578C199.99 36.0819 200.237 35.7114 200.676 35.4455C200.848 35.352 200.997 35.387 201.123 35.551C201.248 35.715 201.35 35.9529 201.428 36.2652C201.506 36.5777 201.561 36.9366 201.593 37.3424C201.624 37.7485 201.632 38.1386 201.617 38.5135ZM199.536 43.1852C199.293 43.4424 199.023 43.6649 198.726 43.8524C198.428 44.0399 198.122 44.1804 197.809 44.274C197.495 44.3679 197.213 44.391 196.963 44.3441C196.258 44.2039 195.717 43.8991 195.341 43.4309C194.965 42.9626 194.726 42.4124 194.625 41.7803C194.523 41.1478 194.534 40.4725 194.66 39.7545C194.785 39.0364 194.996 38.3692 195.294 37.7524C195.592 37.1356 195.952 36.6047 196.375 36.16C196.798 35.715 197.26 35.4381 197.762 35.3285C197.574 36.1246 197.511 36.9485 197.574 37.7991C197.636 38.6499 197.84 39.4499 198.185 40.1992C198.404 40.6525 198.667 41.0658 198.972 41.4404C199.278 41.8153 199.65 42.1353 200.089 42.4006C199.963 42.6662 199.779 42.9276 199.536 43.1852ZM225.541 38.7476C225.588 38.3888 225.658 38.0097 225.753 37.6116C225.847 37.2138 225.964 36.8273 226.105 36.4526C226.246 36.0777 226.411 35.7539 226.599 35.4809C226.787 35.2079 226.986 35.0124 227.198 34.8953C227.41 34.7783 227.625 34.7899 227.844 34.9304C228.079 35.0712 228.224 35.3677 228.279 35.8201C228.334 36.2732 228.279 36.7569 228.115 37.2723C227.95 37.7874 227.656 38.2714 227.233 38.7239C226.811 39.1772 226.238 39.4734 225.518 39.6139C225.486 39.3956 225.494 39.1068 225.541 38.7476ZM235.013 38.7476C235.06 38.3888 235.13 38.0097 235.224 37.6116C235.318 37.2138 235.436 36.8273 235.577 36.4526C235.718 36.0777 235.882 35.7539 236.07 35.4809C236.258 35.2079 236.458 35.0124 236.67 34.8953C236.881 34.7783 237.097 34.7899 237.316 34.9304C237.551 35.0712 237.696 35.3677 237.751 35.8201C237.805 36.2732 237.751 36.7569 237.586 37.2723C237.422 37.7874 237.128 38.2714 236.705 38.7239C236.282 39.1772 235.71 39.4734 234.989 39.6139C234.958 39.3956 234.966 39.1068 235.013 38.7476ZM243.814 40.1175C243.634 39.9226 243.415 39.7859 243.156 39.7075C242.898 39.6296 242.651 39.622 242.416 39.6844C242.181 39.7467 242.031 39.9107 241.969 40.176C241.844 40.6757 241.644 41.187 241.37 41.7095C241.096 42.233 240.759 42.7286 240.359 43.1968C239.96 43.6649 239.509 44.0791 239.008 44.438C238.506 44.7971 237.982 45.0547 237.434 45.2104C236.885 45.3827 236.43 45.402 236.07 45.2692C235.71 45.1367 235.424 44.9103 235.212 44.5904C235.001 44.2701 234.849 43.8839 234.754 43.4309C234.66 42.9784 234.605 42.5102 234.59 42.026C235.483 42.0886 236.278 41.9288 236.975 41.5459C237.672 41.1635 238.264 40.6558 238.75 40.0236C239.235 39.3917 239.603 38.6814 239.854 37.8929C240.104 37.1045 240.246 36.3201 240.278 35.5394C240.293 34.8056 240.183 34.185 239.948 33.6776C239.713 33.1705 239.396 32.7759 238.997 32.4952C238.597 32.2139 238.139 32.0501 237.621 32.0032C237.104 31.9563 236.579 32.027 236.047 32.2139C235.404 32.4328 234.86 32.7878 234.414 33.2795C233.967 33.7715 233.595 34.3416 233.297 34.9889C232.999 35.6371 232.764 36.3353 232.592 37.0848C232.419 37.8341 232.294 38.572 232.216 39.2978C232.14 40.0022 232.099 40.6763 232.089 41.3216C232.03 41.4502 231.967 41.5795 231.899 41.7095C231.624 42.233 231.287 42.7286 230.888 43.1968C230.489 43.6649 230.038 44.0791 229.537 44.438C229.035 44.7971 228.51 45.0547 227.962 45.2104C227.413 45.3827 226.959 45.402 226.599 45.2692C226.238 45.1367 225.953 44.9103 225.741 44.5904C225.53 44.2701 225.377 43.8839 225.283 43.4309C225.189 42.9784 225.134 42.5102 225.118 42.026C226.011 42.0886 226.806 41.9288 227.504 41.5459C228.201 41.1635 228.792 40.6558 229.278 40.0236C229.764 39.3917 230.132 38.6814 230.382 37.8929C230.633 37.1045 230.775 36.3201 230.805 35.5394C230.821 34.8056 230.712 34.185 230.477 33.6776C230.242 33.1705 229.924 32.7759 229.525 32.4952C229.125 32.2139 228.667 32.0501 228.15 32.0032C227.633 31.9563 227.108 32.027 226.576 32.2139C225.932 32.4328 225.388 32.7878 224.942 33.2795C224.496 33.7715 224.123 34.3416 223.826 34.9889C223.528 35.6371 223.293 36.3353 223.121 37.0848C222.948 37.8341 222.823 38.572 222.745 39.2978C222.7 39.7072 222.671 40.1041 222.649 40.4939C222.497 40.6222 222.35 40.7515 222.192 40.8783C221.652 41.3156 221.083 41.7095 220.488 42.061C219.893 42.4124 219.274 42.7012 218.632 42.9276C217.989 43.154 217.331 43.2906 216.657 43.3373L218.115 27.7882C218.209 27.4602 218.162 27.1718 217.974 26.9219C217.786 26.672 217.543 26.5003 217.245 26.4068C216.948 26.3129 216.63 26.3209 216.293 26.4299C215.956 26.5395 215.678 26.7894 215.459 27.1792C215.349 27.7727 215.235 28.5844 215.118 29.6146C215.001 30.6449 214.883 31.7691 214.766 32.9869C214.648 34.2046 214.53 35.4613 214.413 36.7569C214.296 38.053 214.194 39.2628 214.107 40.3867C214.103 40.4366 214.101 40.4817 214.097 40.531C213.959 40.6469 213.827 40.7636 213.684 40.8783C213.144 41.3156 212.576 41.7095 211.98 42.061C211.385 42.4124 210.766 42.7012 210.124 42.9276C209.481 43.154 208.823 43.2906 208.15 43.3373L209.607 27.7882C209.701 27.4602 209.654 27.1718 209.466 26.9219C209.278 26.672 209.035 26.5003 208.737 26.4068C208.44 26.3129 208.122 26.3209 207.785 26.4299C207.449 26.5395 207.171 26.7894 206.951 27.1792C206.841 27.7727 206.728 28.5844 206.611 29.6146C206.493 30.6449 206.376 31.7691 206.258 32.9869C206.14 34.2046 206.023 35.4613 205.905 36.7569C205.788 38.053 205.686 39.2628 205.6 40.3867C205.598 40.4092 205.597 40.4297 205.595 40.4523C205.349 40.5661 205.08 40.6659 204.789 40.7497C204.491 40.8358 204.154 40.8866 203.778 40.9021C203.841 40.6207 203.892 40.3085 203.931 39.9651C203.97 39.622 204.002 39.2628 204.026 38.8878C204.049 38.5135 204.056 38.1386 204.049 37.764C204.041 37.3891 204.021 37.0459 203.99 36.7334C203.911 36.0626 203.767 35.4262 203.555 34.8249C203.344 34.2242 203.058 33.721 202.698 33.3145C202.337 32.9087 201.887 32.6354 201.346 32.4952C200.805 32.3546 200.175 32.4013 199.454 32.6354C198.388 32.4952 197.429 32.5929 196.575 32.9283C195.721 33.2644 194.98 33.7519 194.354 34.3918C193.728 35.0323 193.214 35.7851 192.815 36.6517C192.415 37.518 192.149 38.4081 192.016 39.321C191.959 39.7081 191.932 40.0934 191.924 40.4778C191.681 40.9728 191.415 41.4053 191.123 41.7684C190.707 42.2835 190.277 42.7051 189.83 43.0328C189.383 43.3607 188.941 43.6106 188.503 43.7823C188.063 43.9543 187.672 44.0714 187.327 44.1335C186.92 44.2116 186.528 44.2196 186.152 44.157C185.776 44.0948 185.431 43.9151 185.118 43.6183C184.867 43.3999 184.675 43.0485 184.542 42.5645C184.409 42.0806 184.331 41.5307 184.307 40.9137C184.284 40.2969 184.307 39.6528 184.377 38.9817C184.448 38.3106 184.569 37.6743 184.742 37.0733C184.914 36.4722 185.133 35.9337 185.4 35.4571C185.666 34.9815 185.979 34.6416 186.34 34.4387C186.543 34.4702 186.669 34.5908 186.716 34.8015C186.763 35.0124 186.775 35.2622 186.751 35.551C186.728 35.84 186.693 36.1366 186.646 36.4408C186.599 36.7453 186.575 36.9993 186.575 37.2019C186.653 37.6235 186.806 37.9515 187.033 38.1855C187.26 38.4196 187.515 38.5566 187.797 38.5952C188.079 38.6345 188.357 38.5682 188.632 38.3962C188.905 38.2247 189.128 37.9515 189.302 37.5765C189.317 37.5922 189.34 37.6 189.372 37.6L189.701 34.6262C189.795 34.22 189.732 33.8612 189.513 33.549C189.293 33.2367 189.003 33.057 188.643 33.0103C188.189 32.3546 187.574 32.0074 186.798 31.9682C186.023 31.9293 185.228 32.1829 184.413 32.7293C183.911 33.0888 183.469 33.584 183.085 34.2162C182.701 34.8487 182.388 35.551 182.145 36.3237C181.902 37.0964 181.729 37.9125 181.628 38.7711C181.526 39.6296 181.506 40.4651 181.569 41.2764C181.631 42.0886 181.777 42.8536 182.004 43.5714C182.231 44.2897 182.548 44.8907 182.956 45.3744C183.301 45.796 183.692 46.1046 184.13 46.2998C184.569 46.495 185.027 46.6156 185.505 46.6625C185.983 46.7092 186.457 46.6896 186.927 46.604C187.398 46.5185 187.844 46.3975 188.267 46.241C188.815 46.0384 189.38 45.7805 189.959 45.4683C190.539 45.1563 191.095 44.7814 191.628 44.3441C191.908 44.1142 192.178 43.8634 192.439 43.5946C192.557 43.8881 192.69 44.1721 192.85 44.438C193.273 45.1403 193.845 45.7104 194.566 46.1474C195.286 46.5844 196.172 46.7947 197.221 46.7796C198.35 46.7639 199.391 46.4793 200.347 45.9249C201.303 45.3711 202.086 44.5547 202.698 43.4778C203.613 43.4778 204.513 43.3275 205.399 43.0289C205.391 43.1234 205.383 43.2229 205.377 43.3141C205.314 44.1415 205.282 44.7033 205.282 45C205.267 45.5152 205.232 46.1513 205.177 46.9082C205.122 47.6655 205.087 48.4617 205.071 49.2966C205.056 50.1319 205.087 50.975 205.165 51.826C205.244 52.6765 205.408 53.4495 205.659 54.1446C205.909 54.8388 206.265 55.4285 206.728 55.9128C207.19 56.3961 207.797 56.6853 208.55 56.779C209.349 56.8878 210.038 56.7476 210.618 56.3574C211.197 55.9667 211.667 55.4324 212.028 54.7535C212.388 54.0741 212.642 53.2897 212.792 52.4C212.94 51.5098 212.983 50.6162 212.921 49.7182C212.858 48.8206 212.693 47.9739 212.427 47.178C212.161 46.3815 211.792 45.7258 211.323 45.2104C211.605 45.1328 211.941 44.9846 212.333 44.7657C212.725 44.5473 213.128 44.3013 213.544 44.028C213.646 43.9609 213.746 43.8901 213.848 43.8212C213.81 44.3744 213.79 44.7689 213.79 45C213.775 45.5152 213.74 46.1513 213.684 46.9082C213.63 47.6655 213.595 48.4617 213.579 49.2966C213.563 50.1319 213.595 50.975 213.673 51.826C213.751 52.6765 213.916 53.4495 214.166 54.1446C214.417 54.8388 214.774 55.4285 215.235 55.9128C215.698 56.3961 216.305 56.6853 217.057 56.779C217.856 56.8878 218.545 56.7476 219.125 56.3574C219.705 55.9667 220.175 55.4324 220.535 54.7535C220.896 54.0741 221.15 53.2897 221.299 52.4C221.448 51.5098 221.491 50.6162 221.428 49.7182C221.366 48.8206 221.201 47.9739 220.935 47.178C220.668 46.3815 220.301 45.7258 219.83 45.2104C220.112 45.1328 220.449 44.9846 220.841 44.7657C221.232 44.5473 221.636 44.3013 222.052 44.028C222.267 43.886 222.481 43.7395 222.696 43.5889C222.776 44.3524 222.95 45.022 223.226 45.5853C223.563 46.2725 224.021 46.8031 224.601 47.178C225.18 47.5523 225.862 47.7594 226.646 47.7983C227.429 47.8369 228.283 47.6928 229.208 47.3648C229.897 47.1153 230.496 46.8031 231.005 46.4284C231.514 46.0535 231.973 45.5969 232.38 45.0586C232.404 45.0274 232.426 44.9935 232.449 44.962C232.522 45.1807 232.602 45.3907 232.698 45.5853C233.035 46.2725 233.493 46.8031 234.073 47.178C234.652 47.5523 235.334 47.7594 236.117 47.7983C236.901 47.8369 237.754 47.6928 238.679 47.3648C239.369 47.1153 239.968 46.8031 240.477 46.4284C240.986 46.0535 241.444 45.5969 241.852 45.0586C242.259 44.5197 242.631 43.8991 242.968 43.1968C243.305 42.4942 243.646 41.6905 243.991 40.7847C244.053 40.5352 243.994 40.3127 243.814 40.1175Z" fill="#0D0C23"/>
</g>
<defs>
<clipPath id="clip0_337_3">
<rect width="267.157" height="75" fill="white" transform="translate(0.846191 0.0625)"/>
</clipPath>
</defs>
</svg>
