<svg width="357" height="101" viewBox="0 0 357 101" fill="none" xmlns="http://www.w3.org/2000/svg">
<g clip-path="url(#clip0_337_3)">
<path d="M0.395508 16.5C0.395508 7.66346 7.55897 0.5 16.3955 0.5H340.396C349.232 0.5 356.396 7.66346 356.396 16.5V84.5C356.396 93.3366 349.232 100.5 340.396 100.5H16.3955C7.55897 100.5 0.395508 93.3366 0.395508 84.5V16.5Z" fill="#FFDD00"/>
<path d="M71.9788 33.3879L71.935 33.3621L71.833 33.3311C71.8742 33.3656 71.9252 33.3856 71.9788 33.3879Z" fill="#0D0C22"/>
<path d="M71.9958 33.3789C71.99 33.3781 71.9847 33.3768 71.9795 33.375C71.9788 33.3786 71.9788 33.3822 71.9795 33.3858C71.9854 33.385 71.9906 33.3826 71.9958 33.3789Z" fill="#0D0C22"/>
<path d="M71.9792 33.3889H71.9877V33.3838L71.9792 33.3889Z" fill="#0D0C22"/>
<path d="M72.5833 37.9516L72.6571 37.9094L72.6846 37.8939L72.7094 37.8672C72.663 37.8874 72.6199 37.916 72.5833 37.9516Z" fill="#0D0C22"/>
<path d="M72.1047 33.4872L72.0322 33.4183L71.9832 33.3916C72.01 33.4381 72.0531 33.4725 72.1047 33.4872Z" fill="#0D0C22"/>
<path d="M53.9119 77.8545C53.8541 77.8793 53.8035 77.9185 53.7646 77.9682L53.8103 77.9388C53.8413 77.9107 53.8852 77.8767 53.9119 77.8545Z" fill="#0D0C22"/>
<path d="M64.4777 75.7765C64.4777 75.7112 64.4458 75.7229 64.4536 75.9556C64.4536 75.9367 64.4614 75.9177 64.4648 75.8994C64.4691 75.8582 64.4726 75.8177 64.4777 75.7765Z" fill="#0D0C22"/>
<path d="M63.3864 77.8545C63.3287 77.8793 63.2781 77.9185 63.2393 77.9682L63.2849 77.9388C63.3159 77.9107 63.3598 77.8767 63.3864 77.8545Z" fill="#0D0C22"/>
<path d="M46.4665 78.3499C46.4226 78.312 46.3689 78.2865 46.3115 78.2773C46.358 78.3002 46.4045 78.3224 46.4355 78.3394L46.4665 78.3499Z" fill="#0D0C22"/>
<path d="M44.7945 76.7475C44.7877 76.6795 44.7669 76.6142 44.7334 76.5547C44.7571 76.6161 44.7769 76.6795 44.7928 76.7442L44.7945 76.7475Z" fill="#0D0C22"/>
<path d="M56.0404 48.0637C53.7415 49.0479 51.1327 50.1637 47.7516 50.1637C46.3371 50.1609 44.9296 49.9668 43.5671 49.5868L45.9056 73.596C45.9884 74.5992 46.4456 75.5352 47.1863 76.2169C47.927 76.8992 48.8971 77.2777 49.9041 77.277C49.9041 77.277 53.2198 77.4496 54.3262 77.4496C55.5169 77.4496 59.0875 77.277 59.0875 77.277C60.0942 77.277 61.0641 76.8986 61.8047 76.2169C62.5452 75.5345 63.0023 74.5992 63.085 73.596L65.5897 47.065C64.4704 46.6827 63.3408 46.4287 62.0673 46.4287C59.8649 46.4279 58.0904 47.1864 56.0404 48.0637Z" fill="white"/>
<path d="M36.333 37.8213L36.3726 37.8583L36.3984 37.8738C36.3786 37.854 36.3566 37.8364 36.333 37.8213Z" fill="#0D0C22"/>
<path d="M76.4082 35.6048L76.0565 33.8286C75.7402 32.2349 75.0232 30.729 73.3873 30.153C72.8631 29.9687 72.2677 29.8895 71.8657 29.5081C71.4637 29.1267 71.3448 28.5343 71.252 27.985C71.0801 26.9768 70.918 25.9677 70.7415 24.9612C70.5892 24.0959 70.4683 23.1238 70.0716 22.33C69.5552 21.2641 68.4833 20.6407 67.4173 20.2283C66.8709 20.0244 66.3134 19.8519 65.7477 19.7117C63.0846 19.0091 60.2846 18.7508 57.5449 18.6036C54.2565 18.4222 50.9594 18.4768 47.6788 18.7672C45.237 18.9893 42.6652 19.258 40.3448 20.1026C39.4967 20.4117 38.6229 20.7828 37.978 21.438C37.1867 22.243 36.9284 23.4881 37.5061 24.4919C37.9169 25.2049 38.6126 25.7085 39.3504 26.0417C40.3115 26.4711 41.3152 26.7977 42.3449 27.0164C45.212 27.6501 48.1816 27.8989 51.1107 28.0048C54.3572 28.1358 57.609 28.0296 60.8399 27.6871C61.639 27.5993 62.4365 27.494 63.2327 27.3711C64.1703 27.2274 64.7721 26.0013 64.4958 25.1472C64.1651 24.126 63.2766 23.73 62.2718 23.8841C62.1237 23.9074 61.9765 23.9289 61.8284 23.9504L61.7216 23.9659C61.3812 24.0089 61.0409 24.0491 60.7005 24.0864C59.9973 24.1622 59.2925 24.2242 58.5859 24.2724C57.0034 24.3826 55.4165 24.4334 53.8306 24.436C52.2722 24.436 50.7129 24.3921 49.158 24.2896C48.4485 24.2431 47.7408 24.184 47.0348 24.1123C46.7136 24.0787 46.3933 24.0434 46.073 24.0038L45.7682 23.965L45.702 23.9556L45.386 23.9099C44.7402 23.8126 44.0945 23.7007 43.4556 23.5655C43.3912 23.5512 43.3335 23.5154 43.2922 23.4639C43.2509 23.4124 43.2283 23.3483 43.2283 23.2823C43.2283 23.2162 43.2509 23.1522 43.2922 23.1007C43.3335 23.0492 43.3912 23.0133 43.4556 22.999H43.4677C44.0213 22.881 44.5792 22.7803 45.1388 22.6924C45.3254 22.6632 45.5126 22.6345 45.7002 22.6064H45.7054C46.0558 22.5831 46.408 22.5203 46.7567 22.4789C49.7905 22.1634 52.8424 22.0558 55.891 22.157C57.371 22.2 58.8502 22.287 60.3233 22.4368C60.6402 22.4695 60.9554 22.504 61.2705 22.5426C61.391 22.5573 61.5124 22.5745 61.6338 22.5892L61.8783 22.6245C62.5912 22.7306 63.3004 22.8595 64.0058 23.0111C65.0511 23.2383 66.3931 23.3124 66.8585 24.4575C67.0062 24.8209 67.0735 25.2247 67.1552 25.6061L67.2598 26.0925C67.2624 26.1013 67.2644 26.1102 67.2657 26.1192C67.5121 27.2672 67.7585 28.4152 68.0049 29.5632C68.0232 29.648 68.0239 29.7357 68.0062 29.8206C67.9892 29.9056 67.9546 29.9861 67.9049 30.0571C67.8552 30.1281 67.7912 30.1881 67.7173 30.2334C67.6435 30.2786 67.5605 30.3081 67.4748 30.32H67.4677L67.3173 30.3407L67.1683 30.3605C66.6964 30.4219 66.2239 30.4793 65.7511 30.5327C64.8195 30.6389 63.8865 30.7307 62.952 30.8082C61.0951 30.9626 59.2345 31.064 57.3701 31.1121C56.4202 31.1374 55.4705 31.1492 54.5211 31.1474C50.7422 31.1445 46.9666 30.9249 43.2128 30.4896C42.8064 30.4414 42.4001 30.3898 41.9937 30.3372C42.3088 30.3777 41.7646 30.3062 41.6545 30.2908C41.3962 30.2546 41.1378 30.217 40.8795 30.1779C40.0125 30.0479 39.1507 29.8878 38.2854 29.7475C37.2392 29.5753 36.2388 29.6614 35.2926 30.1779C34.5158 30.603 33.8872 31.2548 33.4905 32.0463C33.0824 32.8901 32.961 33.8088 32.7784 34.7154C32.5959 35.6221 32.3118 36.5975 32.4194 37.5283C32.651 39.537 34.0553 41.1694 36.0752 41.5345C37.9754 41.8789 39.886 42.1579 41.8016 42.3955C49.327 43.3172 56.9296 43.4274 64.4785 42.7244C65.0933 42.667 65.7072 42.6044 66.3199 42.5367C66.5114 42.5157 66.7056 42.5377 66.8873 42.6013C67.069 42.6648 67.2343 42.7682 67.3709 42.9039C67.5075 43.0396 67.6128 43.2042 67.6775 43.3856C67.7422 43.567 67.7657 43.7606 67.7461 43.9522L67.5546 45.8102C67.1696 49.5647 66.7846 53.3189 66.3997 57.0728C65.9977 61.0151 65.5932 64.957 65.1863 68.8983C65.0714 70.0088 64.9567 71.1186 64.8418 72.2284C64.7316 73.3206 64.7161 74.448 64.5086 75.5277C64.1815 77.2251 63.032 78.2683 61.3548 78.6493C59.8182 78.999 58.2486 79.1826 56.6728 79.197C54.9258 79.2062 53.1797 79.1291 51.4328 79.1382C49.5679 79.1487 47.2836 78.9768 45.844 77.5885C44.5792 76.3696 44.4045 74.4604 44.2322 72.8101C44.0026 70.6251 43.775 68.4402 43.5495 66.2552L42.2838 54.1076L41.465 46.2475C41.4512 46.1175 41.4375 45.9892 41.4245 45.8584C41.3264 44.9208 40.6626 44.003 39.6165 44.0503C38.721 44.0899 37.7033 44.851 37.8084 45.8584L38.4154 51.6856L39.6707 63.7396C40.0283 67.1637 40.385 70.5879 40.7409 74.0127C40.8098 74.6689 40.8744 75.3271 40.9467 75.9826C41.3401 79.5683 44.0781 81.5003 47.4687 82.0441C49.449 82.363 51.4775 82.4284 53.4871 82.4611C56.0631 82.5023 58.6651 82.6016 61.199 82.1349C64.9538 81.446 67.7709 78.9389 68.1729 75.0493C68.2879 73.9271 68.4029 72.8036 68.5173 71.6807C68.899 67.9656 69.2801 64.2504 69.6611 60.5349L70.9056 48.3949L71.4768 42.8311C71.5049 42.5553 71.6219 42.2958 71.8088 42.0913C71.9964 41.8868 72.2448 41.748 72.5167 41.6955C73.5905 41.4862 74.6167 41.129 75.3807 40.3119C76.5964 39.0109 76.8382 37.3147 76.4082 35.6048ZM36.0201 36.8051C36.0364 36.7973 36.0063 36.9376 35.9934 37.0031C35.9908 36.9041 35.996 36.8162 36.0201 36.8051ZM36.1243 37.6109C36.1329 37.6049 36.1587 37.6394 36.1854 37.6807C36.1449 37.6428 36.1191 37.6144 36.1234 37.6109H36.1243ZM36.2267 37.7461C36.2835 37.8486 36.2637 37.809 36.2267 37.7461ZM36.4325 37.9132H36.4377C36.4377 37.9192 36.4471 37.9252 36.4506 37.9312C36.4448 37.9246 36.4385 37.9185 36.4316 37.9132H36.4325ZM72.467 37.6634C72.0814 38.0302 71.4997 38.2007 70.9258 38.286C64.4854 39.2417 57.9513 39.7255 51.4405 39.512C46.7808 39.3527 42.1701 38.8353 37.5569 38.1835C37.1049 38.1198 36.615 38.0372 36.3042 37.704C35.7187 37.0754 36.0063 35.8097 36.1587 35.0504C36.2982 34.3547 36.5651 33.4274 37.3925 33.3283C38.684 33.1768 40.1839 33.7218 41.4616 33.9155C42.9999 34.1503 44.5439 34.3383 46.0937 34.4795C52.7078 35.0822 59.4331 34.9883 66.018 34.1067C67.218 33.9454 68.4141 33.758 69.6056 33.5445C70.6677 33.3541 71.8441 32.9969 72.486 34.0964C72.9258 34.8454 72.984 35.8476 72.916 36.694C72.8951 37.0627 72.7343 37.4096 72.4657 37.6634H72.467Z" fill="#0D0C22"/>
<path fill-rule="evenodd" clip-rule="evenodd" d="M111.53 55.558C111.154 56.2758 110.637 56.9008 109.979 57.4312C109.321 57.962 108.554 58.3942 107.676 58.7269C106.799 59.0605 105.916 59.2842 105.028 59.3983C104.14 59.5128 103.278 59.5029 102.443 59.367C101.607 59.232 100.896 58.9563 100.312 58.5395L100.971 51.7018C101.576 51.4939 102.338 51.2804 103.258 51.0618C104.177 50.8435 105.122 50.687 106.094 50.5935C107.065 50.4997 107.984 50.5107 108.851 50.6248C109.718 50.7393 110.402 51.015 110.903 51.4523C111.175 51.7018 111.405 51.9724 111.593 52.2639C111.781 52.5555 111.896 52.8573 111.938 53.1695C112.042 54.0437 111.907 54.8399 111.53 55.558ZM101.973 40.9925C102.411 40.722 102.939 40.4824 103.555 40.274C104.171 40.0665 104.803 39.9203 105.451 39.8371C106.098 39.7543 106.73 39.7432 107.347 39.8058C107.963 39.8684 108.507 40.0399 108.977 40.3208C109.447 40.602 109.796 41.008 110.026 41.5384C110.256 42.0696 110.318 42.741 110.214 43.5526C110.131 44.1979 109.874 44.7445 109.447 45.1918C109.018 45.6397 108.496 46.0141 107.88 46.3159C107.264 46.6182 106.611 46.8574 105.922 47.0337C105.231 47.2111 104.568 47.3414 103.931 47.4242C103.294 47.5078 102.741 47.5601 102.271 47.5803C101.801 47.6013 101.492 47.6116 101.346 47.6116L101.973 40.9925ZM114.915 51.1398C114.581 50.4117 114.131 49.7716 113.567 49.2194C113.003 48.668 112.334 48.2676 111.562 48.0177C111.896 47.7471 112.225 47.3205 112.549 46.7374C112.873 46.1551 113.149 45.5197 113.379 44.8329C113.609 44.1456 113.766 43.454 113.849 42.7565C113.932 42.0593 113.901 41.4608 113.756 40.9608C113.399 39.7124 112.841 38.7339 112.079 38.0261C111.316 37.3186 110.428 36.8294 109.415 36.5585C108.401 36.2888 107.284 36.2309 106.062 36.387C104.84 36.543 103.592 36.85 102.318 37.3079C102.318 37.2041 102.328 37.0948 102.349 36.9803C102.369 36.8663 102.38 36.7462 102.38 36.621C102.38 36.309 102.224 36.0388 101.91 35.8094C101.597 35.5805 101.237 35.4454 100.83 35.4034C100.422 35.3622 100.025 35.4501 99.638 35.6688C99.2518 35.8875 98.9851 36.2888 98.8393 36.8706C98.672 38.7442 98.5047 40.6907 98.338 42.7093C98.1707 44.7287 97.9929 46.7687 97.8053 48.8297C97.6171 50.8902 97.4289 52.9354 97.2413 54.9646C97.0531 56.9943 96.8648 58.9456 96.6772 60.8188C96.74 61.3808 96.8962 61.8182 97.1472 62.1303C97.3975 62.4428 97.6903 62.6302 98.0243 62.6924C98.3583 62.755 98.7086 62.6971 99.074 62.5205C99.4393 62.3442 99.7583 62.0364 100.03 61.5995C100.865 62.0574 101.806 62.3541 102.85 62.4896C103.895 62.6246 104.954 62.6246 106.031 62.4896C107.107 62.3541 108.167 62.0994 109.211 61.7243C110.256 61.3499 111.207 60.8814 112.063 60.3197C112.92 59.7576 113.64 59.1171 114.226 58.3993C114.81 57.6808 115.197 56.9056 115.384 56.0733C115.573 55.2197 115.625 54.3665 115.541 53.5129C115.458 52.6597 115.248 51.869 114.915 51.1398Z" fill="#0D0C23"/>
<path fill-rule="evenodd" clip-rule="evenodd" d="M145.486 67.6264C145.372 68.3133 145.209 69.0369 145.001 69.797C144.791 70.5558 144.546 71.2486 144.265 71.8735C143.982 72.4977 143.669 73.0016 143.325 73.3872C142.98 73.7722 142.608 73.9336 142.212 73.8715C141.899 73.829 141.7 73.6316 141.617 73.278C141.533 72.9238 141.533 72.4865 141.617 71.9669C141.7 71.446 141.861 70.8578 142.102 70.2022C142.342 69.5467 142.635 68.8957 142.98 68.2513C143.325 67.6055 143.716 66.9865 144.155 66.3931C144.593 65.8004 145.053 65.3056 145.533 64.9103C145.638 65.0351 145.685 65.3473 145.674 65.8471C145.663 66.3467 145.601 66.9401 145.486 67.6264ZM156.11 54.0759C155.827 53.7637 155.483 53.5871 155.075 53.5451C154.668 53.5035 154.255 53.7324 153.838 54.232C153.566 54.7315 153.221 55.2103 152.803 55.6682C152.386 56.1265 151.952 56.5425 151.503 56.9172C151.053 57.2915 150.625 57.6147 150.218 57.8849C149.811 58.1558 149.492 58.3535 149.263 58.4782C149.179 57.8124 149.131 57.0943 149.121 56.3238C149.11 55.5537 149.127 54.7734 149.169 53.9824C149.231 52.8582 149.361 51.7241 149.56 50.579C149.759 49.4343 150.046 48.3101 150.422 47.2065C150.422 46.6242 150.286 46.1505 150.014 45.786C149.742 45.422 149.414 45.1927 149.027 45.0992C148.64 45.0057 148.244 45.0576 147.837 45.2552C147.429 45.4533 147.08 45.8126 146.787 46.3323C146.537 47.0196 146.249 47.7896 145.925 48.6428C145.601 49.4964 145.236 50.3655 144.829 51.25C144.421 52.1353 143.967 52.9937 143.465 53.826C142.964 54.659 142.416 55.3981 141.82 56.043C141.225 56.6882 140.577 57.1933 139.878 57.5573C139.177 57.9217 138.421 58.083 137.606 58.0414C137.229 57.9372 136.957 57.6563 136.791 57.198C136.623 56.7405 136.524 56.1677 136.493 55.4809C136.462 54.794 136.493 54.0394 136.587 53.2171C136.681 52.3952 136.806 51.578 136.963 50.7663C137.12 49.9543 137.292 49.1843 137.48 48.4558C137.668 47.7274 137.845 47.113 138.012 46.6135C138.263 46.0102 138.263 45.5048 138.012 45.0992C137.762 44.6931 137.418 44.423 136.979 44.2871C136.54 44.1521 136.08 44.1576 135.6 44.303C135.12 44.4488 134.774 44.7712 134.566 45.2707C134.21 46.1247 133.886 47.0817 133.594 48.1433C133.302 49.2049 133.067 50.3033 132.889 51.4374C132.712 52.5722 132.612 53.6964 132.591 54.8099C132.59 54.8824 132.593 54.9512 132.593 55.0233C132.138 56.2335 131.704 57.1481 131.291 57.7601C130.759 58.5515 130.157 58.895 129.489 58.7904C129.196 58.6656 129.004 58.3745 128.91 57.9162C128.815 57.4586 128.784 56.8966 128.815 56.2299C128.847 55.5645 128.925 54.8099 129.05 53.9665C129.176 53.1236 129.332 52.2494 129.52 51.3439C129.708 50.438 129.907 49.5281 130.116 48.6119C130.325 47.6961 130.512 46.8322 130.68 46.0201C130.659 45.2917 130.445 44.7352 130.037 44.3497C129.631 43.9651 129.061 43.8142 128.33 43.897C127.829 44.1053 127.457 44.3763 127.218 44.709C126.977 45.0417 126.784 45.4688 126.638 45.9888C126.553 46.2598 126.429 46.8009 126.261 47.6129C126.094 48.4241 125.88 49.3562 125.619 50.4071C125.358 51.4588 125.05 52.5564 124.695 53.7011C124.34 54.8459 123.942 55.8822 123.504 56.8079C123.065 57.734 122.585 58.4782 122.063 59.0403C121.54 59.602 120.976 59.8314 120.37 59.7272C120.036 59.6647 119.822 59.3212 119.728 58.6969C119.634 58.0722 119.619 57.3026 119.681 56.3864C119.744 55.4706 119.869 54.466 120.057 53.3735C120.245 52.2807 120.438 51.2452 120.636 50.2665C120.835 49.2884 121.018 48.4241 121.186 47.6751C121.352 46.9256 121.467 46.4262 121.53 46.1766C121.53 45.5729 121.393 45.0893 121.123 44.7245C120.851 44.3608 120.522 44.1314 120.135 44.0376C119.748 43.9441 119.352 43.996 118.945 44.1937C118.537 44.3917 118.187 44.751 117.895 45.2707C117.79 45.8328 117.654 46.4836 117.487 47.2224C117.32 47.9611 117.159 48.7209 117.002 49.5016C116.845 50.2823 116.699 51.0472 116.563 51.7966C116.427 52.5461 116.328 53.2016 116.265 53.7637C116.223 54.2007 116.176 54.737 116.125 55.3716C116.072 56.0069 116.046 56.6779 116.046 57.3854C116.046 58.0937 116.098 58.796 116.203 59.4931C116.307 60.1907 116.495 60.8308 116.767 61.4131C117.038 61.9962 117.42 62.4746 117.911 62.8494C118.401 63.2241 119.023 63.432 119.775 63.4741C120.548 63.5152 121.221 63.4586 121.797 63.3021C122.37 63.146 122.893 62.9013 123.363 62.5681C123.833 62.2358 124.261 61.8401 124.648 61.3818C125.034 60.9243 125.416 60.4248 125.791 59.8833C126.147 60.6747 126.606 61.2883 127.17 61.7256C127.735 62.1625 128.33 62.4231 128.957 62.506C129.583 62.5887 130.221 62.5012 130.869 62.2405C131.516 61.9807 132.101 61.5382 132.623 60.9135C132.967 60.5305 133.291 60.0952 133.596 59.6139C133.725 59.8393 133.863 60.0567 134.018 60.2576C134.529 60.9243 135.224 61.3818 136.102 61.6317C137.042 61.8816 137.96 61.9237 138.859 61.7569C139.757 61.5905 140.614 61.2883 141.428 60.8514C142.243 60.4141 143 59.8888 143.701 59.2745C144.4 58.6605 145.011 58.0207 145.533 57.3541C145.512 57.833 145.502 58.2862 145.502 58.7124C145.502 59.1394 145.491 59.602 145.471 60.1019C144.426 60.8308 143.439 61.705 142.51 62.7246C141.58 63.7442 140.765 64.8319 140.065 65.9872C139.365 67.1421 138.817 68.3133 138.421 69.4996C138.023 70.6865 137.83 71.795 137.84 72.8258C137.851 73.8558 138.096 74.7558 138.577 75.5258C139.057 76.2964 139.84 76.8473 140.927 77.1807C142.055 77.5349 143.047 77.5447 143.904 77.212C144.761 76.8787 145.507 76.3271 146.144 75.5571C146.782 74.7872 147.304 73.8558 147.712 72.763C148.119 71.6702 148.442 70.5303 148.683 69.3441C148.923 68.1578 149.074 66.9911 149.137 65.8471C149.2 64.702 149.2 63.6816 149.137 62.7868C150.934 62.0377 152.406 61.0906 153.555 59.9454C154.704 58.8015 155.655 57.5937 156.407 56.3238C156.636 56.0116 156.715 55.6369 156.642 55.2C156.569 54.7628 156.391 54.388 156.11 54.0759Z" fill="#0D0C23"/>
<path fill-rule="evenodd" clip-rule="evenodd" d="M195.64 52.0773C195.703 51.5988 195.797 51.0938 195.922 50.563C196.047 50.0322 196.204 49.5168 196.392 49.0174C196.58 48.5179 196.799 48.0861 197.05 47.7217C197.301 47.3576 197.567 47.0974 197.849 46.941C198.131 46.7853 198.418 46.8007 198.711 46.9877C199.024 47.1755 199.217 47.5708 199.291 48.174C199.363 48.7785 199.291 49.4234 199.071 50.1102C198.852 50.7975 198.46 51.4423 197.896 52.0461C197.332 52.6501 196.569 53.045 195.608 53.2324C195.567 52.9417 195.577 52.5562 195.64 52.0773ZM206.497 53.3572C206.153 53.2538 205.824 53.2431 205.51 53.3263C205.197 53.4095 204.999 53.6281 204.916 53.9823C204.748 54.6481 204.481 55.3298 204.116 56.027C203.75 56.7245 203.301 57.3852 202.769 58.0099C202.237 58.6342 201.635 59.186 200.967 59.6645C200.298 60.1434 199.599 60.4868 198.867 60.6947C198.136 60.9241 197.53 60.9498 197.05 60.7728C196.569 60.5965 196.188 60.2943 195.907 59.8677C195.624 59.4411 195.42 58.9257 195.295 58.3221C195.17 57.7183 195.097 57.0941 195.076 56.4484C196.267 56.532 197.327 56.3189 198.257 55.8083C199.186 55.2989 199.974 54.6219 200.622 53.779C201.269 52.9361 201.761 51.989 202.095 50.9377C202.429 49.8868 202.617 48.8407 202.659 47.7997C202.68 46.8213 202.534 45.9942 202.22 45.3177C201.907 44.6415 201.484 44.1151 200.951 43.7408C200.419 43.3661 199.807 43.1474 199.118 43.0852C198.429 43.0226 197.729 43.1164 197.018 43.3661C196.161 43.6576 195.436 44.1309 194.841 44.7869C194.245 45.4425 193.749 46.2026 193.352 47.0661C192.956 47.93 192.642 48.8613 192.412 49.8603C192.182 50.8596 192.015 51.8432 191.911 52.8113C191.817 53.68 191.767 54.5106 191.749 55.3124C191.704 55.4142 191.661 55.512 191.613 55.621C191.289 56.3605 190.912 57.0838 190.485 57.7912C190.057 58.4991 189.581 59.0925 189.059 59.571C188.537 60.0499 187.994 60.2162 187.43 60.0705C187.095 59.9877 186.913 59.6019 186.882 58.9154C186.85 58.2281 186.886 57.3749 186.991 56.3549C187.095 55.3353 187.216 54.2314 187.352 53.045C187.487 51.8587 187.555 50.7246 187.555 49.642C187.555 48.7052 187.377 47.8053 187.022 46.941C186.667 46.0778 186.181 45.3593 185.565 44.7869C184.949 44.2141 184.233 43.8342 183.419 43.6473C182.604 43.4595 181.727 43.5847 180.787 44.0216C179.846 44.4589 179.099 45.0728 178.546 45.8639C177.992 46.6553 177.486 47.4876 177.026 48.3618C176.859 47.6955 176.614 47.0768 176.29 46.504C175.966 45.9317 175.569 45.4321 175.099 45.0051C174.629 44.5789 174.101 44.2458 173.517 44.0061C172.932 43.7673 172.315 43.6473 171.667 43.6473C171.041 43.6473 170.461 43.7673 169.929 44.0061C169.396 44.2458 168.91 44.5524 168.471 44.9271C168.033 45.3022 167.636 45.7233 167.28 46.1919C166.925 46.6601 166.612 47.1236 166.341 47.5811C166.298 47.04 166.252 46.5666 166.2 46.1602C166.147 45.7546 166.053 45.4112 165.918 45.1303C165.782 44.8491 165.589 44.636 165.338 44.4902C165.087 44.3448 164.732 44.2715 164.273 44.2715C164.042 44.2715 163.812 44.3183 163.583 44.4117C163.353 44.5057 163.149 44.636 162.972 44.8023C162.794 44.9695 162.659 45.1719 162.565 45.4112C162.471 45.6504 162.445 45.9265 162.486 46.2386C162.507 46.4679 162.565 46.7433 162.659 47.0661C162.752 47.3889 162.841 47.8108 162.925 48.3305C163.008 48.851 163.076 49.4808 163.129 50.2196C163.181 50.9587 163.196 51.8642 163.176 52.9361C163.154 54.0084 163.076 55.2621 162.941 56.6983C162.805 58.1347 162.59 59.7999 162.298 61.6938C162.256 62.131 162.424 62.4852 162.8 62.7557C163.176 63.0259 163.604 63.1819 164.084 63.2239C164.565 63.2655 165.02 63.1819 165.448 62.9744C165.876 62.7656 166.122 62.4016 166.184 61.8815C166.246 60.9031 166.367 59.8625 166.544 58.7589C166.722 57.6562 166.941 56.5633 167.203 55.4807C167.463 54.3985 167.761 53.3683 168.095 52.3895C168.429 51.4111 168.801 50.5476 169.208 49.7981C169.616 49.0487 170.039 48.4505 170.477 48.0029C170.916 47.5553 171.375 47.3315 171.856 47.3315C172.441 47.3315 172.895 47.5965 173.219 48.1273C173.542 48.6585 173.772 49.3406 173.908 50.1724C174.044 51.0055 174.107 51.9165 174.097 52.9048C174.086 53.8935 174.044 54.8457 173.971 55.7615C173.898 56.6778 173.814 57.4945 173.72 58.2127C173.626 58.9309 173.558 59.4256 173.517 59.6957C173.517 60.1747 173.699 60.5542 174.065 60.8354C174.43 61.1162 174.837 61.283 175.287 61.3349C175.737 61.3872 176.159 61.3036 176.556 61.0849C176.953 60.8662 177.183 60.4975 177.246 59.9766C177.454 58.4781 177.742 56.9745 178.107 55.4653C178.473 53.9561 178.891 52.6034 179.361 51.4063C179.831 50.2093 180.353 49.2309 180.927 48.4712C181.502 47.7118 182.113 47.3315 182.761 47.3315C183.095 47.3315 183.351 47.5608 183.528 48.0183C183.706 48.4762 183.795 49.1006 183.795 49.8916C183.795 50.4747 183.748 51.0732 183.654 51.6872C183.559 52.3011 183.45 52.9361 183.325 53.5917C183.199 54.2476 183.09 54.9187 182.995 55.6055C182.902 56.2928 182.855 57.0105 182.855 57.76C182.855 58.2804 182.907 58.8841 183.012 59.571C183.116 60.2574 183.314 60.9087 183.607 61.5222C183.899 62.1366 184.301 62.6567 184.814 63.0833C185.325 63.5099 185.978 63.7234 186.771 63.7234C187.963 63.7234 189.017 63.4683 189.937 62.9585C190.856 62.4487 191.644 61.7828 192.303 60.9606C192.337 60.9174 192.368 60.8714 192.401 60.8287C192.452 60.9502 192.496 61.079 192.553 61.1946C193.002 62.1104 193.613 62.8179 194.386 63.3178C195.159 63.8173 196.068 64.093 197.113 64.1453C198.157 64.1968 199.295 64.0043 200.529 63.5674C201.447 63.2342 202.246 62.8179 202.925 62.3184C203.604 61.8189 204.215 61.2101 204.758 60.4919C205.302 59.7738 205.797 58.9463 206.247 58.0099C206.697 57.0727 207.15 56.0012 207.61 54.7934C207.693 54.4612 207.615 54.1644 207.375 53.9038C207.135 53.644 206.842 53.4617 206.497 53.3572Z" fill="#0D0C23"/>
<path fill-rule="evenodd" clip-rule="evenodd" d="M223.528 49.8744C223.424 50.4888 223.283 51.1657 223.105 51.9041C222.928 52.6432 222.703 53.4081 222.432 54.1992C222.16 54.9902 221.826 55.7032 221.429 56.3377C221.032 56.9731 220.577 57.4774 220.066 57.8521C219.554 58.2268 218.964 58.3829 218.296 58.3203C217.961 58.2791 217.705 58.0502 217.528 57.6334C217.35 57.2175 217.256 56.6864 217.245 56.0411C217.235 55.3962 217.292 54.6883 217.418 53.9179C217.543 53.1483 217.736 52.3933 217.998 51.6542C218.259 50.9158 218.577 50.2337 218.953 49.609C219.33 48.9847 219.763 48.5007 220.254 48.1573C220.745 47.8138 221.283 47.653 221.868 47.6732C222.453 47.6942 223.079 47.9853 223.748 48.5474C223.705 48.8184 223.633 49.2608 223.528 49.8744ZM234.668 52.263C234.344 52.0966 234.01 52.0606 233.666 52.154C233.321 52.2475 233.075 52.5652 232.93 53.1063C232.846 53.6894 232.658 54.3759 232.366 55.1668C232.073 55.9579 231.712 56.7077 231.285 57.4148C230.856 58.1227 230.365 58.7109 229.811 59.1791C229.258 59.6477 228.668 59.8612 228.041 59.8188C227.519 59.7776 227.153 59.5122 226.945 59.023C226.735 58.5338 226.626 57.9202 226.615 57.1807C226.604 56.4423 226.678 55.6097 226.834 54.6832C226.991 53.7571 227.179 52.8361 227.398 51.9195C227.618 51.0041 227.843 50.1244 228.073 49.2814C228.302 48.4385 228.49 47.7255 228.637 47.1428C228.803 46.6223 228.751 46.1803 228.48 45.8155C228.208 45.4518 227.869 45.1911 227.462 45.0351C227.054 44.8791 226.641 44.8374 226.223 44.9103C225.805 44.9832 225.534 45.207 225.409 45.5813C224.176 44.5198 222.99 43.9474 221.853 43.8642C220.713 43.781 219.664 44.031 218.703 44.6136C217.741 45.1963 216.89 46.0392 216.149 47.1428C215.407 48.2464 214.807 49.4482 214.347 50.7491C213.887 52.0498 213.6 53.3772 213.485 54.73C213.37 56.083 213.459 57.3166 213.752 58.43C214.045 59.5435 214.561 60.4545 215.303 61.1616C216.044 61.8694 217.053 62.2236 218.327 62.2236C218.891 62.2236 219.434 62.1091 219.956 61.8802C220.478 61.6508 220.959 61.3803 221.398 61.0681C221.836 60.756 222.222 60.428 222.558 60.0846C222.891 59.7411 223.152 59.4552 223.341 59.2259C223.486 59.9753 223.727 60.6106 224.062 61.1308C224.395 61.6508 224.777 62.0782 225.205 62.4106C225.633 62.7433 226.083 62.9881 226.552 63.1445C227.022 63.3006 227.477 63.3787 227.915 63.3787C228.898 63.3787 229.816 63.0455 230.673 62.3793C231.53 61.7138 232.298 60.8962 232.977 59.9285C233.655 58.9604 234.215 57.9408 234.653 56.8685C235.092 55.7967 235.384 54.8444 235.53 54.0114C235.677 53.6993 235.65 53.3717 235.452 53.0283C235.253 52.6848 234.992 52.4301 234.668 52.263Z" fill="#0D0C23"/>
<path fill-rule="evenodd" clip-rule="evenodd" d="M291.074 69.5023C290.897 70.2095 290.62 70.8089 290.243 71.2978C289.867 71.7867 289.397 72.0416 288.833 72.0631C288.478 72.0834 288.207 71.8958 288.018 71.501C287.831 71.105 287.7 70.5952 287.627 69.971C287.554 69.3461 287.522 68.6487 287.533 67.8788C287.543 67.1089 287.574 66.3487 287.627 65.5995C287.678 64.8504 287.742 64.1525 287.815 63.5076C287.888 62.8619 287.945 62.3633 287.987 62.0091C288.697 62.0923 289.288 62.3989 289.758 62.9301C290.227 63.4608 290.588 64.0903 290.839 64.8191C291.09 65.5476 291.235 66.3337 291.278 67.1762C291.319 68.0193 291.251 68.7945 291.074 69.5023ZM279.73 69.5023C279.553 70.2095 279.276 70.8089 278.9 71.2978C278.524 71.7867 278.054 72.0416 277.49 72.0631C277.135 72.0834 276.863 71.8958 276.675 71.501C276.487 71.105 276.356 70.5952 276.284 69.971C276.21 69.3461 276.178 68.6487 276.19 67.8788C276.199 67.1089 276.231 66.3487 276.284 65.5995C276.335 64.8504 276.398 64.1525 276.471 63.5076C276.544 62.8619 276.601 62.3633 276.644 62.0091C277.354 62.0923 277.944 62.3989 278.414 62.9301C278.884 63.4608 279.244 64.0903 279.495 64.8191C279.746 65.5476 279.892 66.3337 279.934 67.1762C279.975 68.0193 279.907 68.7945 279.73 69.5023ZM268.09 51.768C268.068 52.2671 268.021 52.7096 267.948 53.0946C267.875 53.4804 267.776 53.7244 267.65 53.8286C267.42 53.7035 267.138 53.3814 266.804 52.8605C266.47 52.3404 266.209 51.7518 266.02 51.0962C265.833 50.4406 265.775 49.7958 265.848 49.1604C265.921 48.5259 266.25 48.0319 266.835 47.6774C267.065 47.5526 267.263 47.5993 267.431 47.818C267.598 48.0367 267.733 48.3539 267.839 48.7702C267.942 49.187 268.015 49.6655 268.058 50.2066C268.099 50.748 268.11 51.2682 268.09 51.768ZM265.316 57.9969C264.992 58.3399 264.631 58.6366 264.235 58.8866C263.837 59.1365 263.43 59.3238 263.012 59.4487C262.594 59.5738 262.218 59.6047 261.884 59.5421C260.944 59.3552 260.224 58.9487 259.722 58.3245C259.221 57.7002 258.902 56.9666 258.767 56.1237C258.631 55.2804 258.646 54.38 258.814 53.4226C258.98 52.4652 259.262 51.5755 259.659 50.7532C260.056 49.9308 260.537 49.223 261.101 48.6301C261.665 48.0367 262.281 47.6675 262.95 47.5213C262.699 48.5829 262.616 49.6813 262.699 50.8154C262.782 51.9499 263.054 53.0166 263.514 54.0155C263.806 54.6201 264.156 55.171 264.563 55.6705C264.971 56.1704 265.467 56.597 266.052 56.9508C265.885 57.3049 265.639 57.6534 265.316 57.9969ZM299.989 52.0802C300.052 51.6017 300.145 51.0962 300.271 50.5654C300.396 50.035 300.553 49.5197 300.741 49.0202C300.929 48.5203 301.148 48.0886 301.399 47.7245C301.65 47.3605 301.916 47.0999 302.198 46.9438C302.48 46.7877 302.767 46.8032 303.059 46.9905C303.373 47.1783 303.566 47.5736 303.639 48.1769C303.712 48.781 303.639 49.4258 303.42 50.1131C303.201 50.7999 302.809 51.4452 302.245 52.0485C301.682 52.6529 300.918 53.0479 299.958 53.2352C299.916 52.9441 299.926 52.5591 299.989 52.0802ZM312.618 52.0802C312.68 51.6017 312.774 51.0962 312.899 50.5654C313.025 50.035 313.182 49.5197 313.37 49.0202C313.558 48.5203 313.776 48.0886 314.027 47.7245C314.278 47.3605 314.545 47.0999 314.827 46.9438C315.109 46.7877 315.396 46.8032 315.688 46.9905C316.002 47.1783 316.195 47.5736 316.268 48.1769C316.341 48.781 316.268 49.4258 316.049 50.1131C315.829 50.7999 315.438 51.4452 314.874 52.0485C314.31 52.6529 313.547 53.0479 312.586 53.2352C312.544 52.9441 312.555 52.5591 312.618 52.0802ZM324.353 53.9067C324.112 53.6468 323.82 53.4646 323.476 53.36C323.131 53.2562 322.802 53.2459 322.488 53.3291C322.175 53.4123 321.976 53.631 321.893 53.9847C321.725 54.651 321.459 55.3327 321.094 56.0294C320.728 56.7274 320.279 57.3881 319.746 58.0123C319.214 58.6366 318.613 59.1888 317.945 59.6673C317.276 60.1462 316.576 60.4897 315.846 60.6972C315.114 60.9269 314.508 60.9527 314.027 60.7756C313.547 60.5989 313.166 60.2971 312.884 59.8705C312.602 59.4435 312.399 58.9286 312.273 58.3245C312.148 57.7212 312.074 57.0969 312.054 56.4513C313.244 56.5348 314.305 56.3218 315.234 55.8112C316.163 55.3014 316.952 54.6244 317.601 53.7815C318.248 52.9389 318.739 51.9918 319.073 50.9406C319.407 49.8893 319.595 48.8435 319.637 47.8025C319.658 46.8242 319.511 45.9967 319.198 45.3201C318.885 44.644 318.462 44.1179 317.929 43.7436C317.396 43.3685 316.786 43.1502 316.095 43.0876C315.407 43.025 314.707 43.1193 313.996 43.3685C313.139 43.6604 312.414 44.1338 311.819 44.7893C311.224 45.4453 310.727 46.2054 310.33 47.0686C309.933 47.9329 309.62 48.8637 309.39 49.8631C309.159 50.8621 308.993 51.8461 308.889 52.8138C308.787 53.7529 308.732 54.6518 308.72 55.5121C308.641 55.6836 308.556 55.8559 308.465 56.0294C308.099 56.7274 307.65 57.3881 307.118 58.0123C306.586 58.6366 305.984 59.1888 305.316 59.6673C304.648 60.1462 303.948 60.4897 303.217 60.6972C302.485 60.9269 301.88 60.9527 301.399 60.7756C300.918 60.5989 300.537 60.2971 300.256 59.8705C299.974 59.4435 299.77 58.9286 299.644 58.3245C299.519 57.7212 299.446 57.0969 299.425 56.4513C300.616 56.5348 301.676 56.3218 302.606 55.8112C303.535 55.3014 304.324 54.6244 304.971 53.7815C305.619 52.9389 306.11 51.9918 306.444 50.9406C306.778 49.8893 306.967 48.8435 307.008 47.8025C307.029 46.8242 306.883 45.9967 306.57 45.3201C306.256 44.644 305.833 44.1179 305.3 43.7436C304.767 43.3685 304.157 43.1502 303.467 43.0876C302.778 43.025 302.078 43.1193 301.368 43.3685C300.51 43.6604 299.785 44.1338 299.19 44.7893C298.595 45.4453 298.098 46.2054 297.701 47.0686C297.305 47.9329 296.992 48.8637 296.761 49.8631C296.531 50.8621 296.364 51.8461 296.26 52.8138C296.201 53.3596 296.161 53.8888 296.132 54.4085C295.93 54.5797 295.733 54.752 295.524 54.9211C294.803 55.5042 294.045 56.0294 293.252 56.498C292.458 56.9666 291.632 57.3516 290.776 57.6535C289.919 57.9553 289.042 58.1375 288.144 58.1997L290.087 37.4676C290.212 37.0302 290.15 36.6457 289.899 36.3125C289.648 35.9794 289.324 35.7504 288.927 35.6257C288.531 35.5005 288.107 35.5112 287.658 35.6566C287.208 35.8027 286.839 36.1359 286.546 36.6555C286.399 37.447 286.248 38.5291 286.091 39.9029C285.935 41.2766 285.778 42.7755 285.622 44.3991C285.465 46.0228 285.308 47.6984 285.152 49.4258C284.995 51.154 284.859 52.767 284.744 54.2655C284.739 54.3321 284.735 54.3923 284.729 54.458C284.546 54.6125 284.369 54.7682 284.18 54.9211C283.459 55.5042 282.701 56.0294 281.908 56.498C281.114 56.9666 280.289 57.3516 279.433 57.6535C278.576 57.9553 277.698 58.1375 276.8 58.1997L278.743 37.4676C278.869 37.0302 278.806 36.6457 278.556 36.3125C278.305 35.9794 277.98 35.7504 277.584 35.6257C277.187 35.5005 276.763 35.5112 276.314 35.6566C275.865 35.8027 275.495 36.1359 275.202 36.6555C275.056 37.447 274.905 38.5291 274.748 39.9029C274.591 41.2766 274.435 42.7755 274.278 44.3991C274.121 46.0228 273.965 47.6984 273.808 49.4258C273.652 51.154 273.515 52.767 273.401 54.2655C273.398 54.2956 273.396 54.3229 273.393 54.3531C273.065 54.5048 272.708 54.6379 272.319 54.7496C271.922 54.8644 271.473 54.9321 270.972 54.9528C271.056 54.5776 271.123 54.1614 271.175 53.7035C271.227 53.2459 271.27 52.767 271.301 52.2671C271.333 51.768 271.342 51.2682 271.333 50.7686C271.322 50.2687 271.295 49.8112 271.254 49.3945C271.149 48.5001 270.956 47.6516 270.675 46.8499C270.392 46.0489 270.011 45.378 269.531 44.8361C269.05 44.295 268.45 43.9306 267.728 43.7436C267.008 43.5562 266.167 43.6184 265.207 43.9306C263.785 43.7436 262.506 43.8739 261.367 44.3211C260.229 44.7691 259.241 45.4191 258.406 46.2723C257.571 47.1264 256.886 48.1301 256.354 49.2856C255.821 50.4406 255.465 51.6274 255.288 52.8447C255.213 53.3608 255.176 53.8746 255.165 54.3871C254.842 55.047 254.488 55.6238 254.097 56.1078C253.544 56.7947 252.969 57.3568 252.374 57.7937C251.778 58.231 251.188 58.5641 250.604 58.7931C250.018 59.0224 249.496 59.1785 249.037 59.2613C248.493 59.3655 247.971 59.3761 247.47 59.2926C246.969 59.2098 246.509 58.9701 246.092 58.5744C245.757 58.2833 245.501 57.8147 245.324 57.1694C245.146 56.5242 245.042 55.791 245.01 54.9682C244.979 54.1459 245.01 53.2871 245.104 52.3923C245.198 51.4975 245.359 50.649 245.59 49.8477C245.82 49.0463 246.111 48.3282 246.467 47.6928C246.822 47.0587 247.24 46.6055 247.721 46.335C247.991 46.3769 248.159 46.5378 248.222 46.8186C248.285 47.0999 248.3 47.433 248.269 47.818C248.238 48.2034 248.191 48.5987 248.128 49.0044C248.065 49.4104 248.034 49.7491 248.034 50.0192C248.139 50.5813 248.342 51.0186 248.645 51.3307C248.948 51.6429 249.288 51.8255 249.663 51.877C250.039 51.9293 250.41 51.8409 250.776 51.6116C251.141 51.383 251.439 51.0186 251.669 50.5187C251.69 50.5397 251.721 50.55 251.763 50.55L252.202 46.5849C252.327 46.0434 252.243 45.5649 251.951 45.1486C251.658 44.7323 251.272 44.4927 250.791 44.4304C250.186 43.5562 249.365 43.0932 248.331 43.0409C247.297 42.989 246.237 43.3272 245.151 44.0557C244.482 44.535 243.892 45.1953 243.38 46.0383C242.868 46.8816 242.451 47.818 242.127 48.8483C241.803 49.8786 241.573 50.9667 241.438 52.1115C241.302 53.2562 241.276 54.3701 241.359 55.4519C241.442 56.5348 241.636 57.5548 241.939 58.5118C242.242 59.4697 242.665 60.271 243.208 60.9159C243.668 61.478 244.19 61.8895 244.775 62.1497C245.359 62.41 245.971 62.5708 246.608 62.6334C247.245 62.6956 247.877 62.6695 248.504 62.5553C249.131 62.4413 249.726 62.2801 250.29 62.0713C251.021 61.8012 251.774 61.4573 252.546 61.041C253.319 60.6251 254.061 60.1252 254.771 59.5421C255.145 59.2355 255.505 58.9012 255.852 58.5427C256.01 58.9341 256.188 59.3128 256.401 59.6673C256.965 60.6037 257.727 61.3638 258.688 61.9465C259.648 62.5292 260.829 62.8097 262.229 62.7895C263.733 62.7685 265.122 62.389 266.397 61.6499C267.671 60.9115 268.716 59.823 269.531 58.387C270.751 58.387 271.952 58.1867 273.132 57.7886C273.122 57.9145 273.112 58.0472 273.103 58.1688C273.02 59.272 272.977 60.021 272.977 60.4167C272.957 61.1036 272.91 61.9517 272.837 62.961C272.763 63.9706 272.716 65.0323 272.695 66.1455C272.675 67.2592 272.716 68.3834 272.821 69.518C272.925 70.652 273.144 71.6827 273.479 72.6095C273.812 73.535 274.288 74.3213 274.905 74.967C275.52 75.6115 276.33 75.9971 277.333 76.1219C278.399 76.267 279.318 76.0801 280.091 75.5599C280.863 75.0389 281.49 74.3265 281.971 73.4213C282.452 72.5154 282.79 71.4697 282.99 70.2834C283.188 69.0965 283.245 67.905 283.162 66.7076C283.078 65.5108 282.858 64.3818 282.503 63.3206C282.148 62.2587 281.657 61.3844 281.031 60.6972C281.407 60.5938 281.856 60.3961 282.378 60.1042C282.9 59.8131 283.438 59.4851 283.992 59.1206C284.128 59.0312 284.262 58.9368 284.398 58.845C284.347 59.5825 284.321 60.1085 284.321 60.4167C284.301 61.1036 284.254 61.9517 284.18 62.961C284.107 63.9706 284.06 65.0323 284.039 66.1455C284.018 67.2592 284.06 68.3834 284.165 69.518C284.269 70.652 284.488 71.6827 284.822 72.6095C285.156 73.535 285.632 74.3213 286.248 74.967C286.864 75.6115 287.674 75.9971 288.677 76.1219C289.742 76.267 290.661 76.0801 291.434 75.5599C292.207 75.0389 292.834 74.3265 293.314 73.4213C293.795 72.5154 294.134 71.4697 294.333 70.2834C294.531 69.0965 294.588 67.905 294.505 66.7076C294.422 65.5108 294.202 64.3818 293.848 63.3206C293.491 62.2587 293.001 61.3844 292.374 60.6972C292.75 60.5938 293.199 60.3961 293.722 60.1042C294.244 59.8131 294.782 59.4851 295.336 59.1206C295.624 58.9314 295.909 58.7361 296.195 58.5352C296.302 59.5532 296.533 60.4461 296.902 61.1971C297.352 62.1133 297.962 62.8208 298.735 63.3206C299.508 63.8197 300.417 64.0958 301.462 64.1477C302.507 64.1992 303.644 64.0071 304.878 63.5698C305.797 63.237 306.595 62.8208 307.275 62.3212C307.953 61.8214 308.564 61.2125 309.108 60.4948C309.139 60.4532 309.169 60.408 309.199 60.3661C309.296 60.6576 309.403 60.9376 309.531 61.1971C309.98 62.1133 310.592 62.8208 311.364 63.3206C312.137 63.8197 313.046 64.0958 314.09 64.1477C315.135 64.1992 316.273 64.0071 317.506 63.5698C318.425 63.237 319.224 62.8208 319.903 62.3212C320.582 61.8214 321.193 61.2125 321.737 60.4948C322.28 59.7763 322.775 58.9487 323.225 58.0123C323.674 57.0755 324.128 56.004 324.588 54.7963C324.671 54.4636 324.593 54.1669 324.353 53.9067Z" fill="#0D0C23"/>
</g>
<defs>
<clipPath id="clip0_337_3">
<rect width="356.209" height="100" fill="white" transform="translate(0.395508 0.5)"/>
</clipPath>
</defs>
</svg>
