<svg width="360" height="100" viewBox="0 0 360 100" fill="none" xmlns="http://www.w3.org/2000/svg">
<rect width="360" height="100" rx="17" fill="#2787F5"/>
<path d="M96.2955 61V37.7273H111.432V41.2614H100.511V47.5795H110.648V51.1136H100.511V57.4659H111.523V61H96.2955ZM118.915 43.5455L122.438 49.9886L126.017 43.5455H130.369L125.108 52.2727L130.46 61H126.131L122.438 54.7159L118.778 61H114.415L119.733 52.2727L114.551 43.5455H118.915ZM133.551 67.5455V43.5455H137.597V46.4318H137.835C138.047 46.0076 138.347 45.5568 138.733 45.0795C139.119 44.5947 139.642 44.1818 140.301 43.8409C140.96 43.4924 141.801 43.3182 142.824 43.3182C144.172 43.3182 145.388 43.6629 146.472 44.3523C147.563 45.0341 148.426 46.0455 149.062 47.3864C149.706 48.7197 150.028 50.3561 150.028 52.2955C150.028 54.2121 149.714 55.8409 149.085 57.1818C148.456 58.5227 147.6 59.5455 146.517 60.25C145.434 60.9545 144.206 61.3068 142.835 61.3068C141.835 61.3068 141.006 61.1402 140.347 60.8068C139.688 60.4735 139.157 60.072 138.756 59.6023C138.362 59.125 138.055 58.6742 137.835 58.25H137.665V67.5455H133.551ZM137.585 52.2727C137.585 53.4015 137.744 54.3902 138.062 55.2386C138.388 56.0871 138.854 56.75 139.46 57.2273C140.074 57.697 140.816 57.9318 141.688 57.9318C142.597 57.9318 143.358 57.6894 143.972 57.2045C144.585 56.7121 145.047 56.0417 145.358 55.1932C145.676 54.3371 145.835 53.3636 145.835 52.2727C145.835 51.1894 145.68 50.2273 145.369 49.3864C145.059 48.5455 144.597 47.8864 143.983 47.4091C143.369 46.9318 142.604 46.6932 141.688 46.6932C140.809 46.6932 140.062 46.9242 139.449 47.3864C138.835 47.8485 138.369 48.4962 138.051 49.3295C137.741 50.1629 137.585 51.1439 137.585 52.2727ZM157.665 37.7273V61H153.551V37.7273H157.665ZM169.509 61.3409C167.804 61.3409 166.327 60.9659 165.077 60.2159C163.827 59.4659 162.857 58.4167 162.168 57.0682C161.486 55.7197 161.145 54.1439 161.145 52.3409C161.145 50.5379 161.486 48.9583 162.168 47.6023C162.857 46.2462 163.827 45.1932 165.077 44.4432C166.327 43.6932 167.804 43.3182 169.509 43.3182C171.213 43.3182 172.69 43.6932 173.94 44.4432C175.19 45.1932 176.156 46.2462 176.838 47.6023C177.527 48.9583 177.872 50.5379 177.872 52.3409C177.872 54.1439 177.527 55.7197 176.838 57.0682C176.156 58.4167 175.19 59.4659 173.94 60.2159C172.69 60.9659 171.213 61.3409 169.509 61.3409ZM169.531 58.0455C170.455 58.0455 171.228 57.7917 171.849 57.2841C172.471 56.7689 172.933 56.0795 173.236 55.2159C173.546 54.3523 173.702 53.3902 173.702 52.3295C173.702 51.2614 173.546 50.2955 173.236 49.4318C172.933 48.5606 172.471 47.8674 171.849 47.3523C171.228 46.8371 170.455 46.5795 169.531 46.5795C168.584 46.5795 167.796 46.8371 167.168 47.3523C166.546 47.8674 166.08 48.5606 165.77 49.4318C165.467 50.2955 165.315 51.2614 165.315 52.3295C165.315 53.3902 165.467 54.3523 165.77 55.2159C166.08 56.0795 166.546 56.7689 167.168 57.2841C167.796 57.7917 168.584 58.0455 169.531 58.0455ZM181.364 61V43.5455H185.352V46.4545H185.534C185.852 45.447 186.398 44.6705 187.17 44.125C187.951 43.572 188.841 43.2955 189.841 43.2955C190.068 43.2955 190.322 43.3068 190.602 43.3295C190.89 43.3447 191.129 43.3712 191.318 43.4091V47.1932C191.144 47.1326 190.867 47.0795 190.489 47.0341C190.117 46.9811 189.758 46.9545 189.409 46.9545C188.659 46.9545 187.985 47.1174 187.386 47.4432C186.795 47.7614 186.33 48.2045 185.989 48.7727C185.648 49.3409 185.477 49.9962 185.477 50.7386V61H181.364ZM201.06 61.3409C199.31 61.3409 197.798 60.9773 196.526 60.25C195.26 59.5152 194.287 58.4773 193.605 57.1364C192.923 55.7879 192.582 54.2008 192.582 52.375C192.582 50.5795 192.923 49.0038 193.605 47.6477C194.295 46.2841 195.257 45.2235 196.491 44.4659C197.726 43.7008 199.177 43.3182 200.844 43.3182C201.92 43.3182 202.935 43.4924 203.889 43.8409C204.851 44.1818 205.7 44.7121 206.435 45.4318C207.177 46.1515 207.76 47.0682 208.185 48.1818C208.609 49.2879 208.821 50.6061 208.821 52.1364V53.3977H194.514V50.625H204.878C204.87 49.8371 204.7 49.1364 204.366 48.5227C204.033 47.9015 203.567 47.4129 202.969 47.0568C202.378 46.7008 201.688 46.5227 200.901 46.5227C200.06 46.5227 199.321 46.7273 198.685 47.1364C198.048 47.5379 197.552 48.0682 197.196 48.7273C196.848 49.3788 196.67 50.0947 196.662 50.875V53.2955C196.662 54.3106 196.848 55.1818 197.219 55.9091C197.59 56.6288 198.109 57.1818 198.776 57.5682C199.442 57.947 200.223 58.1364 201.116 58.1364C201.715 58.1364 202.257 58.053 202.741 57.8864C203.226 57.7121 203.647 57.4583 204.003 57.125C204.359 56.7917 204.628 56.3788 204.81 55.8864L208.651 56.3182C208.408 57.3333 207.946 58.2197 207.264 58.9773C206.59 59.7273 205.726 60.3106 204.673 60.7273C203.62 61.1364 202.416 61.3409 201.06 61.3409ZM220.42 37.7273H225.58L232.489 54.5909H232.761L239.67 37.7273H244.83V61H240.784V45.0114H240.568L234.136 60.9318H231.114L224.682 44.9773H224.466V61H220.42V37.7273ZM256.966 61.3409C255.216 61.3409 253.705 60.9773 252.432 60.25C251.167 59.5152 250.193 58.4773 249.511 57.1364C248.83 55.7879 248.489 54.2008 248.489 52.375C248.489 50.5795 248.83 49.0038 249.511 47.6477C250.201 46.2841 251.163 45.2235 252.398 44.4659C253.633 43.7008 255.083 43.3182 256.75 43.3182C257.826 43.3182 258.841 43.4924 259.795 43.8409C260.758 44.1818 261.606 44.7121 262.341 45.4318C263.083 46.1515 263.667 47.0682 264.091 48.1818C264.515 49.2879 264.727 50.6061 264.727 52.1364V53.3977H250.42V50.625H260.784C260.777 49.8371 260.606 49.1364 260.273 48.5227C259.939 47.9015 259.473 47.4129 258.875 47.0568C258.284 46.7008 257.595 46.5227 256.807 46.5227C255.966 46.5227 255.227 46.7273 254.591 47.1364C253.955 47.5379 253.458 48.0682 253.102 48.7273C252.754 49.3788 252.576 50.0947 252.568 50.875V53.2955C252.568 54.3106 252.754 55.1818 253.125 55.9091C253.496 56.6288 254.015 57.1818 254.682 57.5682C255.348 57.947 256.129 58.1364 257.023 58.1364C257.621 58.1364 258.163 58.053 258.648 57.8864C259.133 57.7121 259.553 57.4583 259.909 57.125C260.265 56.7917 260.534 56.3788 260.716 55.8864L264.557 56.3182C264.314 57.3333 263.852 58.2197 263.17 58.9773C262.496 59.7273 261.633 60.3106 260.58 60.7273C259.527 61.1364 258.322 61.3409 256.966 61.3409Z" fill="white"/>
</svg>
