<svg width="271" height="76" viewBox="0 0 271 76" fill="none" xmlns="http://www.w3.org/2000/svg">
<rect x="0.549316" y="0.4375" width="270" height="75" rx="12.75" fill="#2787F5"/>
<path d="M72.7709 45.9375V28.483H84.1232V31.1335H75.9328V35.8722H83.5351V38.5227H75.9328V43.2869H84.1914V45.9375H72.7709ZM89.7354 32.8466L92.3774 37.679L95.0621 32.8466H98.3263L94.3803 39.392L98.3945 45.9375H95.1473L92.3774 41.2244L89.6331 45.9375H86.3604L90.349 39.392L86.4627 32.8466H89.7354ZM100.713 50.8466V32.8466H103.747V35.0114H103.926C104.085 34.6932 104.309 34.3551 104.599 33.9972C104.889 33.6335 105.281 33.3239 105.775 33.0682C106.269 32.8068 106.9 32.6761 107.667 32.6761C108.679 32.6761 109.591 32.9347 110.403 33.4517C111.221 33.9631 111.869 34.7216 112.346 35.7273C112.829 36.7273 113.071 37.9545 113.071 39.4091C113.071 40.8466 112.835 42.0682 112.363 43.0739C111.892 44.0795 111.25 44.8466 110.437 45.375C109.625 45.9034 108.704 46.1676 107.676 46.1676C106.926 46.1676 106.304 46.0426 105.809 45.7926C105.315 45.5426 104.917 45.2415 104.616 44.8892C104.321 44.5312 104.091 44.1932 103.926 43.875H103.798V50.8466H100.713ZM103.738 39.392C103.738 40.2386 103.858 40.9801 104.096 41.6165C104.341 42.2528 104.69 42.75 105.144 43.108C105.605 43.4602 106.162 43.6364 106.815 43.6364C107.497 43.6364 108.068 43.4545 108.528 43.0909C108.988 42.7216 109.335 42.2187 109.568 41.5824C109.806 40.9403 109.926 40.2102 109.926 39.392C109.926 38.5795 109.809 37.858 109.576 37.2273C109.343 36.5966 108.997 36.1023 108.537 35.7443C108.076 35.3864 107.502 35.2074 106.815 35.2074C106.156 35.2074 105.596 35.3807 105.136 35.7273C104.676 36.0739 104.326 36.5597 104.088 37.1847C103.855 37.8097 103.738 38.5455 103.738 39.392ZM118.798 28.483V45.9375H115.713V28.483H118.798ZM127.681 46.1932C126.402 46.1932 125.294 45.9119 124.357 45.3494C123.419 44.7869 122.692 44 122.175 42.9886C121.664 41.9773 121.408 40.7955 121.408 39.4432C121.408 38.0909 121.664 36.9062 122.175 35.8892C122.692 34.8722 123.419 34.0824 124.357 33.5199C125.294 32.9574 126.402 32.6761 127.681 32.6761C128.959 32.6761 130.067 32.9574 131.005 33.5199C131.942 34.0824 132.667 34.8722 133.178 35.8892C133.695 36.9062 133.953 38.0909 133.953 39.4432C133.953 40.7955 133.695 41.9773 133.178 42.9886C132.667 44 131.942 44.7869 131.005 45.3494C130.067 45.9119 128.959 46.1932 127.681 46.1932ZM127.698 43.7216C128.391 43.7216 128.97 43.5312 129.436 43.1506C129.902 42.7642 130.249 42.2472 130.476 41.5994C130.709 40.9517 130.826 40.2301 130.826 39.4347C130.826 38.6335 130.709 37.9091 130.476 37.2614C130.249 36.608 129.902 36.0881 129.436 35.7017C128.97 35.3153 128.391 35.1222 127.698 35.1222C126.988 35.1222 126.397 35.3153 125.925 35.7017C125.459 36.0881 125.11 36.608 124.877 37.2614C124.649 37.9091 124.536 38.6335 124.536 39.4347C124.536 40.2301 124.649 40.9517 124.877 41.5994C125.11 42.2472 125.459 42.7642 125.925 43.1506C126.397 43.5312 126.988 43.7216 127.698 43.7216ZM136.572 45.9375V32.8466H139.564V35.0284H139.7C139.939 34.2727 140.348 33.6903 140.927 33.2812C141.512 32.8665 142.18 32.6591 142.93 32.6591C143.1 32.6591 143.291 32.6676 143.501 32.6847C143.717 32.696 143.896 32.7159 144.038 32.7443V35.5824C143.907 35.5369 143.7 35.4972 143.416 35.4631C143.137 35.4233 142.867 35.4034 142.606 35.4034C142.044 35.4034 141.538 35.5256 141.089 35.7699C140.646 36.0085 140.296 36.3409 140.041 36.767C139.785 37.1932 139.657 37.6847 139.657 38.2415V45.9375H136.572ZM151.344 46.1932C150.032 46.1932 148.898 45.9205 147.943 45.375C146.995 44.8239 146.265 44.0455 145.753 43.0398C145.242 42.0284 144.986 40.8381 144.986 39.4688C144.986 38.1222 145.242 36.9403 145.753 35.9233C146.27 34.9006 146.992 34.1051 147.918 33.5369C148.844 32.9631 149.932 32.6761 151.182 32.6761C151.989 32.6761 152.75 32.8068 153.466 33.0682C154.188 33.3239 154.824 33.7216 155.375 34.2614C155.932 34.8011 156.37 35.4886 156.688 36.3239C157.006 37.1534 157.165 38.142 157.165 39.2898V40.2358H146.435V38.1562H154.208C154.202 37.5653 154.074 37.0398 153.824 36.5795C153.574 36.1136 153.225 35.7472 152.776 35.4801C152.333 35.2131 151.816 35.0795 151.225 35.0795C150.594 35.0795 150.04 35.233 149.563 35.5398C149.086 35.8409 148.713 36.2386 148.446 36.733C148.185 37.2216 148.051 37.7585 148.046 38.3438V40.1591C148.046 40.9205 148.185 41.5739 148.463 42.1193C148.742 42.6591 149.131 43.0739 149.631 43.3636C150.131 43.6477 150.716 43.7898 151.387 43.7898C151.836 43.7898 152.242 43.7273 152.605 43.6023C152.969 43.4716 153.284 43.2812 153.551 43.0312C153.818 42.7812 154.02 42.4716 154.157 42.1023L157.037 42.4261C156.855 43.1875 156.509 43.8523 155.997 44.4205C155.492 44.983 154.844 45.4205 154.054 45.733C153.265 46.0398 152.361 46.1932 151.344 46.1932ZM165.865 28.483H169.734L174.916 41.1307H175.12L180.302 28.483H184.171V45.9375H181.137V33.946H180.975L176.152 45.8864H173.885L169.061 33.9205H168.899V45.9375H165.865V28.483ZM193.274 46.1932C191.961 46.1932 190.828 45.9205 189.873 45.375C188.924 44.8239 188.194 44.0455 187.683 43.0398C187.171 42.0284 186.916 40.8381 186.916 39.4688C186.916 38.1222 187.171 36.9403 187.683 35.9233C188.2 34.9006 188.921 34.1051 189.848 33.5369C190.774 32.9631 191.862 32.6761 193.112 32.6761C193.919 32.6761 194.68 32.8068 195.396 33.0682C196.117 33.3239 196.754 33.7216 197.305 34.2614C197.862 34.8011 198.299 35.4886 198.617 36.3239C198.936 37.1534 199.095 38.142 199.095 39.2898V40.2358H188.365V38.1562H196.137C196.132 37.5653 196.004 37.0398 195.754 36.5795C195.504 36.1136 195.154 35.7472 194.706 35.4801C194.262 35.2131 193.745 35.0795 193.154 35.0795C192.524 35.0795 191.97 35.233 191.492 35.5398C191.015 35.8409 190.643 36.2386 190.376 36.733C190.115 37.2216 189.981 37.7585 189.975 38.3438V40.1591C189.975 40.9205 190.115 41.5739 190.393 42.1193C190.671 42.6591 191.061 43.0739 191.561 43.3636C192.061 43.6477 192.646 43.7898 193.316 43.7898C193.765 43.7898 194.171 43.7273 194.535 43.6023C194.899 43.4716 195.214 43.2812 195.481 43.0312C195.748 42.7812 195.95 42.4716 196.086 42.1023L198.967 42.4261C198.785 43.1875 198.439 43.8523 197.927 44.4205C197.421 44.983 196.774 45.4205 195.984 45.733C195.194 46.0398 194.291 46.1932 193.274 46.1932Z" fill="white"/>
</svg>
